<svg width="60" height="60" viewBox="0 0 60 60" fill="none" xmlns="http://www.w3.org/2000/svg">
<path d="M46.4409 33.6322C44.7904 25.3259 52.6745 20.4544 52.6745 20.4544C52.6745 20.4544 49.6028 16.0102 44.4403 14.867C39.2804 13.7212 36.6979 15.1527 34.1204 16.2264C31.5405 17.3027 30.2531 17.3027 30.2531 17.3027C26.53 17.3027 23.8083 13.3607 16.7148 15.1554C11.8278 16.3886 6.68328 22.0301 5.75378 28.7633C4.82427 35.499 6.8301 44.0937 10.6974 50.7547C14.5648 57.421 18.5043 59.9262 21.3004 59.9983C24.0967 60.0678 26.8878 57.9951 30.2531 57.4904C33.621 56.9909 35.6937 58.7109 38.9971 59.6404C42.2877 60.5674 43.4412 59.7074 47.2313 56.4837C51.0317 53.26 54.4717 44.0139 54.4717 44.0139C54.4717 44.0139 48.0914 41.9436 46.4409 33.6322Z" fill="white"/>
<path d="M39.1337 9.49327C42.7899 5.76763 41.5514 0 41.5514 0C41.5514 0 36.4173 0.901211 32.9773 4.48015C29.5399 8.06172 30.1089 13.7186 30.1089 13.7186C30.1089 13.7186 35.4774 13.2165 39.1337 9.49327Z" fill="white"/>
</svg>
