<svg width="319" height="25" viewBox="0 0 319 25" fill="none" xmlns="http://www.w3.org/2000/svg">
<path d="M298.175 13.1208C297.741 13.1416 297.302 13.1558 296.876 13.187C296.599 13.2065 296.481 13.1494 296.296 13.1195C296.235 13.1091 296.169 13.0883 296.112 13.0909C295.681 13.1117 295.251 13.1351 294.821 13.1584C294.689 13.2091 294.606 13.2766 294.404 13.3013C294.206 13.3247 293.973 13.3247 293.754 13.3363C293.464 13.3506 293.174 13.3649 292.885 13.3779C292.74 13.3844 292.621 13.4091 292.573 13.4558C292.564 13.4636 292.661 13.4831 292.713 13.4948C292.889 13.5337 293.06 13.5779 293.253 13.6077C293.438 13.6363 293.666 13.5896 293.864 13.6259C294.307 13.7077 294.312 13.7064 294.65 13.6909C294.939 13.6766 295.229 13.661 295.519 13.6506C295.576 13.648 295.642 13.6675 295.703 13.6779C295.888 13.7064 296.006 13.7714 296.279 13.7467C296.485 13.7272 296.713 13.7233 296.928 13.7129C297.108 13.7506 297.275 13.7934 297.468 13.8233C297.648 13.8519 297.701 13.874 297.605 13.9116C297.517 13.9467 297.394 13.961 297.231 13.9636C297.086 13.9649 296.941 13.9765 296.797 13.983C296.722 13.9869 296.652 13.9895 296.581 13.9934C296.305 14.0077 296.305 14.0077 295.8 13.9246C295.602 13.8921 295.378 13.9376 295.19 13.9064C295.062 13.8856 294.953 13.8545 294.83 13.8324C294.777 13.8233 294.694 13.822 294.628 13.8246C294.408 13.8337 294.189 13.8402 293.978 13.8571C293.829 13.8688 293.741 13.9051 293.758 13.9415C293.763 13.9558 293.868 13.9765 293.93 13.9778C294.07 13.9804 294.219 13.9623 294.355 13.9713C294.487 13.9804 294.623 14.0064 294.72 14.035C294.917 14.0947 295.141 14.0415 295.33 14.0571C295.528 14.0739 295.69 14.1259 295.879 14.157C295.927 14.1648 296.019 14.1518 296.094 14.1479C296.309 14.1389 296.524 14.1311 296.74 14.122C296.92 14.1596 297.113 14.1934 297.275 14.2363C297.569 14.3142 297.886 14.344 298.268 14.3064C298.483 14.2856 298.693 14.2934 298.865 14.344C299.04 14.396 299.242 14.3908 299.466 14.3804C299.673 14.37 299.883 14.3414 300.094 14.3778C300.551 14.4583 300.555 14.4622 301.095 14.431C301.258 14.422 301.38 14.4194 301.503 14.4492C301.617 14.4765 301.74 14.4999 301.859 14.5258C302.074 14.5167 302.294 14.5077 302.509 14.4973C302.785 14.483 302.939 14.5012 303.005 14.5739C303.044 14.618 303.062 14.6583 303.159 14.6882C303.273 14.7245 303.396 14.7232 303.562 14.7128C303.721 14.7037 303.835 14.6895 303.901 14.6427C303.927 14.6232 303.98 14.605 304.028 14.5895C304.067 14.5778 304.129 14.5596 304.164 14.5622C304.23 14.5674 304.318 14.5817 304.34 14.5985C304.555 14.7557 304.555 14.757 304.774 14.8024C305.016 14.8531 305.266 14.8985 305.486 14.9557C305.683 15.0063 305.881 14.9842 306.096 14.9842C306.258 14.9842 306.364 15.018 306.351 15.0518C306.342 15.0712 306.28 15.0998 306.228 15.1024C305.797 15.1284 305.363 15.1504 304.928 15.1686C304.875 15.1712 304.81 15.1478 304.748 15.1362C304.625 15.1128 304.515 15.0764 304.384 15.0686C304.252 15.0608 304.098 15.0803 303.953 15.0868C303.808 15.0933 303.655 15.1102 303.523 15.0998C303.391 15.0894 303.286 15.0518 303.163 15.0271C303.106 15.0154 303.027 14.9985 302.979 15.0024C302.658 15.0336 302.421 14.9907 302.193 14.9336C302.144 14.9219 302.061 14.9141 302 14.9167C301.49 14.9388 300.985 14.9647 300.476 14.9894C300.27 14.9998 300.103 14.9544 300.059 14.8777C300.037 14.8349 299.993 14.792 299.993 14.7492C299.993 14.6713 299.752 14.6284 299.576 14.6375C299.286 14.6505 298.992 14.6609 298.707 14.6804C298.474 14.6959 298.276 14.6804 298.118 14.6336C297.934 14.5804 297.723 14.5908 297.512 14.605C297.354 14.6154 297.31 14.6583 297.319 14.7661C297.328 14.8531 297.253 14.8803 296.968 14.8946C296.608 14.9128 296.243 14.931 295.879 14.9453C295.822 14.9479 295.756 14.9258 295.699 14.9141C295.576 14.8907 295.466 14.8531 295.335 14.8453C295.203 14.8362 295.049 14.8557 294.904 14.8635C294.759 14.87 294.606 14.8881 294.474 14.879C294.342 14.87 294.232 14.831 294.114 14.8063C294.057 14.7946 293.987 14.7778 293.93 14.7804C293.64 14.7907 293.35 14.8063 293.06 14.8206C292.735 14.8362 292.735 14.8362 292.274 14.7557C292.064 14.7193 291.853 14.7479 291.646 14.7583C291.427 14.7687 291.22 14.7739 291.049 14.7219C290.935 14.6882 290.808 14.6674 290.672 14.6739C290.307 14.6895 289.947 14.7089 289.583 14.7245C289.521 14.7271 289.438 14.7206 289.39 14.7089C289.157 14.6544 288.929 14.6115 288.604 14.6388C288.323 14.6622 288.02 14.6635 287.739 14.6856C287.585 14.6972 287.515 14.7388 287.546 14.7713C287.563 14.7881 287.655 14.8076 287.717 14.8076C287.857 14.8089 288.011 14.7894 288.143 14.7972C288.415 14.8128 288.551 14.9219 288.907 14.892C289.117 14.8738 289.337 14.8674 289.556 14.8622C289.614 14.8609 289.675 14.8855 289.736 14.8985C289.912 14.9336 290.066 14.979 290.32 14.9557C290.531 14.9375 290.755 14.9323 290.97 14.9219C291.313 14.905 291.313 14.9063 291.756 14.9855C291.967 15.0232 292.178 14.9933 292.384 14.9842C292.538 14.9777 292.683 14.9648 292.806 14.9829C292.994 15.0102 293.13 15.0725 293.363 15.0686C293.583 15.0647 293.798 15.0466 294.017 15.0401C294.153 15.0362 294.281 15.0569 294.391 15.092C294.505 15.1271 294.628 15.1426 294.777 15.1349C294.992 15.1245 295.212 15.1115 295.431 15.105C295.493 15.1037 295.563 15.1154 295.62 15.1258C295.743 15.1491 295.861 15.1764 295.98 15.2011C296.195 15.1933 296.415 15.1907 296.625 15.1751C296.788 15.1634 296.902 15.1686 297.034 15.1946C297.201 15.2297 297.337 15.292 297.609 15.2621C297.745 15.2478 297.903 15.2517 298.039 15.2387C298.206 15.2219 298.32 15.2284 298.439 15.2673C298.663 15.3413 298.944 15.3426 299.233 15.3141C299.55 15.2829 299.787 15.3193 300.024 15.3764C300.274 15.4361 300.274 15.4348 300.467 15.579C300.524 15.6205 300.687 15.64 300.823 15.6322C301.051 15.6192 301.249 15.6257 301.416 15.6751C301.591 15.7283 301.802 15.7218 302.017 15.7075C302.302 15.6881 302.588 15.6712 302.821 15.7465C302.935 15.7829 303.058 15.7919 303.211 15.7828C303.646 15.7595 304.085 15.7452 304.511 15.7166C304.77 15.6984 304.919 15.74 305.095 15.7751C305.332 15.8231 305.591 15.866 305.591 15.9685C305.591 15.9854 305.652 16.0049 305.705 16.0179C305.819 16.0452 305.942 16.0685 306.061 16.0945C306.236 16.1335 306.408 16.1659 306.649 16.1451C306.86 16.1283 307.084 16.1231 307.299 16.1114C307.514 16.0997 307.712 16.0932 307.905 16.1425C308.129 16.1984 308.366 16.2516 308.621 16.2932C308.801 16.3231 309.038 16.2724 309.231 16.3127C309.349 16.3373 309.464 16.3659 309.591 16.3867C309.643 16.3958 309.727 16.3893 309.797 16.3867C309.942 16.3815 310.091 16.3776 310.232 16.3646C310.394 16.3503 310.517 16.3529 310.64 16.3828C310.754 16.4101 310.869 16.4477 311 16.4555C311.198 16.4672 311.417 16.4153 311.615 16.475C311.716 16.5049 311.843 16.5334 311.975 16.5425C312.107 16.5516 312.26 16.5321 312.401 16.5334C312.462 16.5334 312.537 16.5542 312.572 16.5711C312.594 16.5802 312.563 16.6048 312.533 16.6178C312.493 16.6334 312.436 16.6542 312.379 16.6568C311.944 16.6802 311.51 16.6996 311.075 16.7217C310.816 16.7347 310.816 16.7347 310.293 16.6529C310.17 16.6334 310.034 16.6373 309.881 16.6464C309.674 16.6581 309.464 16.6802 309.248 16.6568C308.967 16.5685 308.621 16.5607 308.252 16.5944C308.098 16.6087 307.958 16.6087 307.843 16.5841C307.602 16.5347 307.347 16.4893 307.132 16.4308C306.965 16.3854 306.886 16.3815 306.816 16.4438C306.794 16.4633 306.772 16.4841 306.776 16.5023C306.803 16.5672 306.851 16.6308 306.877 16.6957C306.886 16.7139 306.851 16.7347 306.829 16.7542C306.759 16.8087 306.667 16.8048 306.513 16.7594C306.359 16.7139 306.175 16.6841 305.929 16.7048C305.718 16.723 305.49 16.7204 305.279 16.7399C304.954 16.7685 304.726 16.7269 304.493 16.6711C304.445 16.6594 304.362 16.6529 304.3 16.6555C303.646 16.6854 302.996 16.7191 302.342 16.749C302.202 16.7555 302.074 16.736 301.964 16.7009C301.85 16.6659 301.723 16.6477 301.582 16.6542C301.003 16.6815 300.423 16.7061 299.844 16.7399C299.607 16.7542 299.418 16.7373 299.255 16.6918C299.132 16.6581 299.018 16.6477 298.865 16.6516C298.698 16.6555 298.579 16.6685 298.496 16.7061C298.417 16.7425 298.474 16.7646 298.649 16.7931C298.838 16.8243 299.014 16.8646 299.194 16.9009C299.339 16.8957 299.484 16.8853 299.624 16.8866C299.686 16.8866 299.743 16.91 299.804 16.923C299.98 16.9606 300.142 16.9983 300.393 16.9775C300.603 16.9594 300.827 16.9555 301.042 16.9438C301.341 16.9295 301.341 16.9295 301.824 17.0113C301.947 17.0321 302.078 17.0308 302.237 17.0191C302.373 17.01 302.513 17.0282 302.61 17.0671C302.649 17.0827 302.636 17.1087 302.553 17.1944C302.553 17.258 302.645 17.2295 302.676 17.1879C302.724 17.1282 302.632 17.1087 302.456 17.1412C302.333 17.1645 302.272 17.1983 302.302 17.2256C302.32 17.2398 302.403 17.258 302.553 17.1944C302.939 17.1165 303.233 17.1074 303.514 17.0866C303.681 17.0749 303.786 17.0801 303.918 17.1139C304.076 17.1541 304.234 17.197 304.493 17.1762C304.774 17.1528 305.073 17.1502 305.358 17.1308C305.622 17.1126 305.758 17.1697 305.925 17.2035C306.127 17.2437 306.351 17.1983 306.535 17.2217C306.728 17.245 306.864 17.3022 307.088 17.3126C307.413 17.2775 307.619 17.3424 307.865 17.3853C308.059 17.4177 308.287 17.3892 308.493 17.3749C308.726 17.3593 308.919 17.3736 309.082 17.4203C309.266 17.4736 309.472 17.4619 309.683 17.4502C310.175 17.4242 310.192 17.4203 310.478 17.4918C310.684 17.5437 310.882 17.5203 311.088 17.5138C311.268 17.5489 311.444 17.5866 311.633 17.6177C311.681 17.6255 311.773 17.6125 311.848 17.6086C312.063 17.5982 312.282 17.5879 312.497 17.5775C312.642 17.571 312.796 17.5515 312.928 17.5593C313.059 17.5684 313.169 17.606 313.288 17.6307C313.406 17.6554 313.529 17.6801 313.643 17.706C313.819 17.745 313.986 17.7775 314.232 17.758C314.442 17.7411 314.662 17.7359 314.882 17.7242C315.158 17.7099 315.149 17.7138 315.663 17.7917C315.94 17.8346 316.225 17.7826 316.506 17.7775C316.647 17.7749 316.783 17.7891 316.879 17.8268C316.919 17.8424 316.906 17.8684 316.919 17.8904C316.194 17.9255 315.465 17.9554 314.75 17.9982C314.473 18.0151 314.328 17.9683 314.179 17.9294C313.933 17.867 313.608 17.9579 313.376 17.8774C313.235 17.8294 313.033 17.8021 312.792 17.8255C312.651 17.8385 312.502 17.8372 312.357 17.8489C311.988 17.8774 311.65 17.8787 311.356 17.7891C311.255 17.758 311.11 17.7411 311.005 17.7112C310.882 17.6788 310.763 17.6606 310.618 17.6671C309.964 17.6982 309.314 17.7294 308.664 17.7632C308.607 17.7658 308.55 17.7852 308.502 17.7995C308.379 17.8359 308.419 17.8645 308.616 17.8878C308.682 17.8956 308.735 17.9125 308.796 17.9255C308.915 17.9502 309.024 17.9891 309.156 17.9982C309.288 18.0073 309.442 17.9891 309.587 17.9826C309.731 17.9761 309.885 17.9566 310.017 17.9644C310.149 17.9735 310.258 18.0112 310.381 18.0346C310.438 18.0463 310.509 18.0657 310.566 18.0644C310.855 18.0566 311.141 18.0424 311.431 18.0307C311.611 18.0657 311.764 18.1164 311.979 18.1281C312.116 18.1359 312.26 18.1216 312.401 18.1242C312.462 18.1255 312.541 18.1449 312.572 18.1618C312.59 18.1722 312.533 18.1982 312.489 18.2112C312.322 18.2605 312.094 18.2514 311.887 18.267C311.663 18.2839 311.461 18.2787 311.29 18.2281C311.176 18.1943 311.048 18.1761 310.908 18.1826C310.544 18.1995 310.184 18.219 309.819 18.2333C309.758 18.2359 309.683 18.2242 309.626 18.2151C309.165 18.1359 309.165 18.1333 308.84 18.1501C308.361 18.1748 308.362 18.1748 308.041 18.106C307.98 18.093 307.914 18.0683 307.861 18.0696C307.352 18.0904 306.847 18.1112 306.342 18.141C306.175 18.1501 306.061 18.1501 305.938 18.1164C305.833 18.0878 305.71 18.0553 305.578 18.0476C305.442 18.0398 305.292 18.0592 305.148 18.0657C305.003 18.0722 304.849 18.0891 304.722 18.0787C304.59 18.0683 304.476 18.032 304.362 18.006C304.243 17.9787 304.116 17.98 303.953 17.9904C303.453 18.0203 303.448 18.0164 302.952 17.9359C302.895 17.9268 302.821 17.9164 302.759 17.919C302.395 17.9346 302.035 17.9541 301.67 17.9696C301.53 17.9761 301.394 17.9593 301.297 17.9216C301.257 17.906 301.271 17.88 301.244 17.8294C301.214 17.8177 301.249 17.8385 301.257 17.858C301.323 17.8554 301.402 17.858 301.451 17.8476C301.574 17.8229 301.635 17.7904 301.604 17.7632C301.587 17.7489 301.503 17.7307 301.451 17.7307C301.354 17.7307 301.271 17.7593 301.244 17.8294C300.968 17.8722 300.673 17.8813 300.388 17.9021C300.221 17.9151 300.116 17.9086 299.984 17.8748C299.826 17.8333 299.664 17.793 299.405 17.8138C299.124 17.8372 298.825 17.8411 298.535 17.8593C298.202 17.88 298.057 17.7632 297.776 17.7658C297.486 17.7684 297.196 17.7904 296.906 17.806C296.652 17.819 296.652 17.819 296.125 17.7346C295.932 17.7034 295.703 17.7489 295.515 17.7164C295.387 17.6956 295.277 17.6645 295.155 17.6424C295.102 17.6333 295.018 17.6333 294.953 17.6359C294.588 17.6515 294.219 17.6619 293.868 17.6904C293.469 17.7242 293.166 17.6879 292.88 17.6112C292.52 17.6255 292.156 17.6333 291.8 17.658C291.541 17.6762 291.392 17.6333 291.216 17.5983C291.155 17.5866 291.102 17.5671 291.036 17.5619C290.97 17.5567 290.891 17.5671 290.821 17.571C290.531 17.5853 290.233 17.5918 289.952 17.6151C289.605 17.645 289.473 17.5385 289.205 17.5255C289.025 17.5892 288.929 17.6762 288.573 17.6826C288.283 17.6878 287.993 17.7086 287.704 17.7229C287.559 17.7294 287.414 17.7372 287.269 17.7437C287.036 17.7554 286.927 17.806 286.975 17.8839C287.001 17.9268 287.023 17.9696 287.045 18.0125C287.089 18.0891 286.979 18.154 286.795 18.1631C286.285 18.1878 285.781 18.2138 285.271 18.2358C285.135 18.2423 285.003 18.2203 284.894 18.1852C284.779 18.1501 284.652 18.1346 284.512 18.141C284.002 18.1657 283.497 18.1917 282.988 18.2138C282.931 18.2164 282.856 18.2034 282.799 18.193C282.676 18.1696 282.558 18.1424 282.439 18.1177C282.15 18.1294 281.864 18.1371 281.579 18.1527C281.118 18.1761 281.118 18.1774 280.78 18.106C280.718 18.093 280.657 18.0683 280.6 18.0696C280.38 18.0748 280.165 18.0878 279.945 18.0995C279.3 18.1333 279.3 18.1333 279.111 18.0943C278.94 18.0579 278.786 18.0138 278.527 18.0346C278.246 18.0579 277.948 18.0657 277.658 18.0787C277.443 18.0878 277.228 18.0982 277.012 18.1008C276.955 18.1021 276.894 18.0774 276.833 18.0644C276.657 18.0242 276.486 17.9917 276.244 18.0138C276.104 18.0268 275.954 18.0294 275.809 18.0359C275.432 18.0541 275.432 18.054 274.813 17.9761C274.751 17.9683 274.677 17.9592 274.615 17.9631C274.106 17.9865 273.601 18.0125 273.092 18.0346C273.03 18.0372 272.956 18.0294 272.894 18.0229C272.2 17.9476 272.2 17.9476 271.463 17.9839C271.182 17.9969 271.173 18.0021 270.879 17.9333C270.747 17.9034 270.637 17.8891 270.484 17.8982C269.904 17.9294 269.32 17.9502 268.745 17.9865C268.486 18.0021 268.337 17.9631 268.161 17.9281C268.1 17.9164 268.034 17.8904 267.981 17.8917C267.402 17.9164 266.822 17.9463 266.242 17.9709C266.19 17.9735 266.124 17.9476 266.062 17.9359C265.944 17.9125 265.83 17.8774 265.698 17.8696C265.562 17.8619 265.412 17.8813 265.263 17.8878C264.899 17.9047 264.899 17.9034 264.477 17.8268C264.42 17.8164 264.346 17.8021 264.289 17.8047C263.709 17.8307 263.125 17.8528 262.55 17.8904C262.221 17.9112 261.997 17.8735 261.764 17.819C261.716 17.8073 261.632 17.8021 261.571 17.8047C260.917 17.8346 260.267 17.8683 259.613 17.8982C259.476 17.9047 259.345 17.8826 259.235 17.8489C259.059 17.7956 258.853 17.8021 258.633 17.8138C258.129 17.8411 258.124 17.8398 257.826 17.7775C257.764 17.7645 257.711 17.7476 257.646 17.7411C257.584 17.7346 257.505 17.7385 257.439 17.7411C257.149 17.7541 256.86 17.7684 256.57 17.7826C256.28 17.7969 255.986 17.8047 255.7 17.8268C255.349 17.8541 255.182 17.7697 254.936 17.7307C254.576 17.7476 254.208 17.758 253.852 17.7852C253.58 17.806 253.453 17.7489 253.273 17.719C253.211 17.7086 253.145 17.6865 253.088 17.6891C252.434 17.7177 251.78 17.7489 251.13 17.7839C250.972 17.7917 250.866 17.7813 250.735 17.7502C250.441 17.6801 250.427 17.6827 249.936 17.7086C249.72 17.7203 249.514 17.7307 249.33 17.6775C249.167 17.6294 248.97 17.6177 248.737 17.6333C248.452 17.6528 248.157 17.6632 247.868 17.6762C247.578 17.6904 247.288 17.7099 246.998 17.7164C246.766 17.7229 246.625 17.6619 246.441 17.6307C246.384 17.6216 246.305 17.6203 246.239 17.6229C245.949 17.6346 245.65 17.6437 245.369 17.6658C245.027 17.693 244.838 17.6216 244.597 17.5801C244.544 17.571 244.456 17.5762 244.39 17.5801C243.881 17.6034 243.376 17.6294 242.867 17.6541C242.687 17.619 242.502 17.5853 242.322 17.5502C242.032 17.5632 241.743 17.5775 241.453 17.5905C241.233 17.6008 241.009 17.6047 240.803 17.6242C240.535 17.6502 240.404 17.5892 240.224 17.5593C240.162 17.5489 240.096 17.5268 240.039 17.5294C239.675 17.5437 239.31 17.5593 238.95 17.5814C238.608 17.6034 238.472 17.4866 238.191 17.4879C237.901 17.4892 237.602 17.5061 237.321 17.5294C236.996 17.5567 236.768 17.5151 236.535 17.4593C236.487 17.4476 236.404 17.4411 236.342 17.4437C235.978 17.4593 235.618 17.4788 235.253 17.4944C235.192 17.497 235.117 17.4905 235.056 17.4827C234.362 17.4061 234.362 17.4048 234.059 17.4203C233.844 17.4307 233.625 17.4437 233.405 17.4502C233.344 17.4528 233.269 17.4411 233.212 17.4307C232.755 17.3515 232.755 17.3502 232.426 17.3658C232.136 17.3801 231.846 17.3944 231.556 17.4087C231.376 17.3736 231.192 17.3398 231.012 17.3048C230.652 17.3217 230.283 17.3346 229.928 17.358C229.761 17.3684 229.651 17.3645 229.524 17.332C229.366 17.2931 229.208 17.2476 228.944 17.2697C228.663 17.2931 228.365 17.2957 228.079 17.3152C227.737 17.3385 227.596 17.2204 227.32 17.2217C227.03 17.223 226.731 17.2398 226.45 17.2632C226.125 17.2905 225.897 17.2489 225.664 17.1931C225.616 17.1814 225.533 17.1749 225.471 17.1775C224.672 17.2152 223.877 17.2528 223.078 17.2931C222.587 17.3177 222.587 17.3191 221.651 17.2476C221.585 17.2424 221.515 17.2372 221.449 17.2398C221.159 17.2515 220.861 17.2606 220.58 17.2827C220.237 17.31 220.049 17.2398 219.807 17.197C219.755 17.1879 219.671 17.1931 219.601 17.1957C219.381 17.2048 219.166 17.2165 218.947 17.2269C218.657 17.2411 218.367 17.2554 218.077 17.2697C217.897 17.2359 217.713 17.2009 217.533 17.1671C217.173 17.184 216.804 17.1931 216.448 17.2204C216.176 17.2411 216.049 17.1866 215.869 17.1554C215.807 17.145 215.742 17.123 215.684 17.1243C215.03 17.1528 214.376 17.1827 213.726 17.2191C213.458 17.2346 213.335 17.1762 213.155 17.1463C213.094 17.1372 213.024 17.1204 212.967 17.123C212.532 17.1412 212.097 17.1632 211.663 17.1853C211.417 17.1983 211.417 17.1983 210.881 17.1178C210.82 17.1087 210.749 17.0996 210.688 17.1022C209.309 17.1671 207.935 17.2359 206.556 17.3009C206.416 17.3074 206.289 17.2879 206.179 17.2528C206.065 17.2178 205.937 17.1996 205.797 17.2061C205.217 17.2334 204.633 17.258 204.058 17.2918C203.821 17.3061 203.632 17.2892 203.47 17.2437C203.347 17.21 203.233 17.197 203.079 17.2048C202.789 17.2204 202.499 17.2333 202.21 17.2476C201.92 17.2619 201.63 17.2762 201.34 17.2905C201.051 17.3048 200.756 17.3126 200.471 17.3346C200.12 17.3619 199.949 17.2814 199.707 17.2411C199.272 17.2606 198.838 17.2801 198.407 17.3009C197.828 17.3281 197.248 17.358 196.669 17.384C196.616 17.3866 196.55 17.3632 196.489 17.3515C196.309 17.3191 196.177 17.2736 195.909 17.2879C194.609 17.3567 193.301 17.4152 191.997 17.4827C191.725 17.497 191.606 17.4411 191.422 17.4113C191.36 17.4022 191.29 17.384 191.233 17.3866C190.509 17.4191 189.784 17.4554 189.06 17.4905C188.766 17.5047 188.766 17.5047 188.274 17.4242C188.217 17.4151 188.142 17.4035 188.081 17.4061C187.137 17.4502 186.197 17.497 185.253 17.5424C185.113 17.5489 184.985 17.5307 184.871 17.4957C184.761 17.4606 184.63 17.4411 184.494 17.4476C183.624 17.4892 182.75 17.5294 181.886 17.5749C181.653 17.5879 181.46 17.5762 181.293 17.5294C181.174 17.4957 181.056 17.4814 180.906 17.4892C179.602 17.5528 178.298 17.6138 176.994 17.6814C176.744 17.6943 176.568 17.6697 176.41 17.6268C176.283 17.5931 176.173 17.5866 176.015 17.5918C175.848 17.5982 175.747 17.6125 175.655 17.6515C175.537 17.7021 175.462 17.7658 175.181 17.7697C174.891 17.7736 174.597 17.7891 174.312 17.8112C174.039 17.8333 173.912 17.7749 173.741 17.7398C173.614 17.7151 173.495 17.7112 173.333 17.7229C173.183 17.7333 173.091 17.7554 173.003 17.7969C172.81 17.8852 172.793 17.8852 172.555 17.8294C172.428 17.7995 172.314 17.7761 172.173 17.7813C171.594 17.8073 171.014 17.8359 170.435 17.8657C170.101 17.8826 170.097 17.8852 169.846 17.8203C169.724 17.7878 169.605 17.7722 169.46 17.78C167.866 17.858 166.273 17.9333 164.679 18.0151C164.433 18.0281 164.266 18.0008 164.09 17.9618C164.033 17.9489 163.976 17.9307 163.91 17.9255C163.845 17.9203 163.77 17.9255 163.7 17.9281C162.541 17.9839 161.377 18.0372 160.222 18.0995C159.959 18.1138 159.818 18.0722 159.638 18.0385C159.577 18.0268 159.524 18.0086 159.458 18.0034C159.392 17.9995 159.313 18.0086 159.243 18.0125C158.084 18.0683 156.921 18.1216 155.766 18.1839C155.489 18.1982 155.371 18.1436 155.191 18.1151C155.129 18.1047 155.063 18.0852 155.006 18.0878C154.642 18.1021 154.282 18.1216 153.917 18.1384C153.048 18.1813 152.179 18.2216 151.309 18.2657C150.976 18.2826 150.831 18.167 150.55 18.1722C150.185 18.1787 149.825 18.2047 149.461 18.2229C149.171 18.2371 148.881 18.2501 148.591 18.2657C148.306 18.28 148.306 18.28 147.595 18.2047C147.533 18.1982 147.459 18.1891 147.397 18.1917C146.383 18.2397 145.364 18.2878 144.355 18.3397C144.122 18.3514 143.929 18.3449 143.762 18.2969C143.643 18.2631 143.52 18.2462 143.375 18.254C141.852 18.328 140.333 18.4021 138.809 18.4748C138.752 18.4774 138.677 18.4644 138.62 18.454C138.497 18.4306 138.379 18.4034 138.26 18.3787C138.173 18.4086 138.058 18.4358 138.001 18.4696C137.922 18.515 137.817 18.528 137.65 18.5358C137.483 18.5436 137.378 18.541 137.246 18.5072C137.088 18.4657 136.926 18.4332 136.667 18.4462C135.073 18.528 133.479 18.602 131.885 18.6826C131.622 18.6955 131.499 18.6384 131.314 18.6085C131.253 18.5994 131.183 18.5852 131.126 18.5878C130.471 18.6176 129.822 18.6501 129.167 18.6813C127.354 18.7696 125.541 18.854 123.732 18.9475C123.403 18.9643 123.179 18.9319 122.946 18.876C122.898 18.8644 122.814 18.8579 122.753 18.8605C120.215 18.9825 117.677 19.1059 115.144 19.2292C115.008 19.2357 114.876 19.215 114.766 19.1812C114.652 19.1461 114.525 19.1293 114.384 19.1358C113.225 19.1916 112.066 19.2474 110.907 19.3046C110.617 19.3189 110.613 19.3201 110.314 19.2578C110.253 19.2448 110.187 19.2202 110.139 19.2228C110.038 19.2293 109.941 19.2617 109.871 19.3059C109.8 19.3526 109.691 19.3656 109.528 19.3747C109.361 19.3838 109.252 19.3799 109.124 19.3487C108.962 19.3098 108.813 19.2721 108.549 19.2851C105.217 19.4513 101.884 19.611 98.5517 19.7759C98.2838 19.7889 98.1609 19.7344 97.9765 19.7045C97.915 19.6954 97.8536 19.6824 97.7877 19.6798C97.7175 19.6772 97.6428 19.685 97.5726 19.6889C92.137 19.9526 86.7015 20.2175 81.2659 20.4811C80.941 20.4967 80.9454 20.4967 80.5897 20.6161C80.5458 20.6304 80.4887 20.6499 80.4272 20.6525C78.7632 20.7356 77.0948 20.8161 75.4264 20.8966C74.7019 20.9317 73.9775 20.968 73.253 21.0018C72.994 21.0135 72.994 21.0135 72.3749 21.1537C72.3222 21.1654 72.2607 21.181 72.1992 21.1836C69.3014 21.3251 66.4036 21.4667 63.5014 21.6056C63.2731 21.616 63.0887 21.6394 62.9833 21.7017C62.9087 21.7459 62.8121 21.7718 62.6672 21.7796C60.6387 21.8783 58.6103 21.9783 56.5775 22.0744C56.336 22.0861 56.191 22.1225 56.0725 22.177C56.033 22.1952 55.9978 22.2159 55.9408 22.2289C55.8881 22.2406 55.8091 22.2445 55.7432 22.2484C54.0045 22.3328 52.2659 22.4198 50.5228 22.5003C50.2638 22.512 50.1583 22.5601 50.031 22.6107C49.9871 22.6276 49.9563 22.651 49.8993 22.6627C49.8422 22.6731 49.7588 22.6731 49.6885 22.6756C48.2396 22.7458 46.7908 22.8172 45.3419 22.8873C45.0609 22.8808 44.9994 22.9561 44.8633 23.0016C44.815 23.0172 44.7799 23.0379 44.7228 23.0483C44.6614 23.0587 44.5822 23.0574 44.5076 23.06C43.3485 23.1159 42.1894 23.1756 41.0259 23.2275C40.758 23.2392 40.7053 23.3054 40.5604 23.3509C40.5121 23.3652 40.4639 23.3873 40.4068 23.3912C39.6824 23.4288 38.9579 23.4639 38.2335 23.4976C37.992 23.5093 37.992 23.508 37.5661 23.6366C37.5178 23.6509 37.4607 23.6665 37.3992 23.6704C36.3147 23.7249 35.2259 23.7768 34.137 23.8301C33.9965 23.8366 33.8999 23.8677 33.8297 23.9119C33.7594 23.956 33.6585 23.9846 33.518 23.9911C32.6486 24.034 31.7792 24.0781 30.9099 24.1171C30.6684 24.1274 30.5104 24.1599 30.405 24.2183C30.326 24.2625 30.2294 24.2846 30.0757 24.2924C29.2064 24.3339 28.337 24.3794 27.4633 24.4157C27.2086 24.4261 27.0769 24.4703 26.9715 24.5248C26.8881 24.569 26.7915 24.5845 26.629 24.5923C25.0352 24.6677 23.4371 24.743 21.8477 24.8261C21.5799 24.8404 21.4437 24.7949 21.2681 24.7624C21.0178 24.717 20.7852 24.6676 20.7852 24.5664C20.7852 24.5508 20.7105 24.5326 20.6579 24.5196C20.2671 24.4222 20.2671 24.4222 20.2056 24.3183C20.1705 24.2547 20.131 24.1898 20.1002 24.1249C20.0432 24.0184 19.9026 23.9911 19.4987 24.0106C19.3538 24.0171 19.2089 24.0262 19.064 24.0313C18.8489 24.0404 18.6864 23.9976 18.6469 23.9197C18.625 23.8768 18.5987 23.834 18.5767 23.7911C18.7962 23.7807 18.7918 23.7794 19.1782 23.6223C19.3406 23.5561 19.3407 23.5561 19.029 23.4899C18.9104 23.4652 18.7962 23.4379 18.6689 23.4145C18.6118 23.4041 18.5372 23.3976 18.4757 23.4002C18.1113 23.4158 17.7513 23.434 17.3913 23.4522C16.8117 23.4808 16.8116 23.4808 16.2233 23.3483C16.175 23.3379 16.1004 23.3184 16.1091 23.3081C16.1574 23.26 16.276 23.2392 16.4252 23.234C16.6448 23.2262 16.8599 23.2132 17.075 23.2029C17.2199 23.1964 17.3648 23.1886 17.5097 23.1821C17.6458 23.1327 17.7864 23.0847 17.9137 23.0341C18.1157 22.9561 18.1156 22.9535 17.839 22.899C17.6634 22.8626 17.4746 22.8302 17.2946 22.7964C17.0794 22.8068 16.8599 22.8185 16.6448 22.8276C16.3726 22.8393 16.2628 22.8146 16.1925 22.7302C16.1311 22.6562 16.2057 22.5925 16.4165 22.577C16.6316 22.5614 16.8336 22.551 16.9434 22.4848C17.0488 22.4211 17.2332 22.3965 17.4615 22.3913C17.6064 22.3874 17.7513 22.3783 17.8961 22.3705C18.0849 22.3601 18.186 22.2939 18.1464 22.2199C18.1245 22.1718 18.0806 22.1315 17.9093 22.1212C17.1497 22.0757 17.1409 22.077 16.7633 21.9887C16.7282 21.9809 16.7019 21.9575 16.7151 21.9459C16.737 21.9264 16.7854 21.8978 16.838 21.8939C17.343 21.8653 17.8479 21.8394 18.3528 21.8199C18.5196 21.8134 18.6426 21.8043 18.6997 21.7563C18.7787 21.69 18.7436 21.629 18.5899 21.5835C18.5416 21.5693 18.4625 21.5511 18.4098 21.5524C17.8302 21.5758 17.2551 21.6056 16.6755 21.629C16.6229 21.6316 16.5263 21.6095 16.5044 21.5926C16.4604 21.5615 16.5263 21.5199 16.6799 21.5056C16.8819 21.4862 17.0883 21.4849 17.2244 21.4199C17.4132 21.3277 17.6458 21.2433 17.8566 21.155C17.8917 21.1395 17.9489 21.1096 17.9357 21.107C17.8259 21.0784 17.6986 21.0563 17.5844 21.0291C17.3912 20.9836 17.3912 20.92 17.4351 20.859C17.4702 20.8096 17.6019 20.7901 17.7644 20.7901C17.8347 20.7901 17.9225 20.7901 17.9795 20.7784C18.1288 20.7499 18.1771 20.7135 18.1025 20.6862C18.0586 20.6707 17.9796 20.6486 17.9269 20.6512C16.9873 20.694 16.0433 20.7356 15.1081 20.7888C14.8315 20.8044 14.7042 20.7551 14.5374 20.72C14.41 20.6927 14.2914 20.6823 14.1334 20.7018C13.9841 20.72 13.8392 20.7096 13.747 20.6668C13.6724 20.6317 13.8041 20.6018 14.1597 20.5681C14.2256 20.5616 14.3002 20.5577 14.3485 20.5447C14.8578 20.4044 14.8578 20.4032 15.209 20.385C15.5515 20.3681 15.5516 20.3668 15.7316 20.2915C15.815 20.2564 15.9072 20.2213 15.9862 20.185C16.0169 20.1707 16.0697 20.1447 16.0521 20.1369C15.9555 20.0967 15.8237 20.0876 15.6701 20.0967C15.3276 20.1188 14.9237 20.1006 14.7437 20.224C14.6735 20.2707 14.5637 20.2837 14.4056 20.2915C12.8162 20.3668 11.2268 20.4473 9.63298 20.52C9.37393 20.5317 9.25545 20.5798 9.15447 20.633C9.06666 20.6772 8.97004 20.6901 8.8032 20.6979C8.63636 20.7057 8.50457 20.7096 8.40798 20.6668C8.3509 20.6408 8.39921 20.6044 8.53093 20.5681C8.71973 20.5161 8.68458 20.4512 8.62312 20.3902C8.57921 20.3499 8.4431 20.3213 8.29821 20.3239C8.08307 20.3291 7.87677 20.3434 7.69676 20.2915C7.59138 20.2616 7.45964 20.2408 7.34109 20.2149C7.11278 20.1616 6.88446 20.1071 6.56394 20.1421C6.34441 20.1292 6.19074 20.0824 6.01512 20.046C5.72095 19.9863 5.6946 19.9772 5.90535 19.9136C6.14245 19.8422 5.95801 19.7487 6.08972 19.6785C6.23022 19.6032 6.42347 19.537 6.59471 19.4669C6.63861 19.4487 6.67815 19.4318 6.72205 19.4136C6.62107 19.3877 6.52888 19.3552 6.41034 19.337C6.25667 19.3137 6.17763 19.2851 6.18641 19.2046C6.15568 19.1929 6.16876 19.2228 6.20388 19.2305C6.2434 19.2383 6.34007 19.2319 6.38836 19.2228C6.5113 19.1981 6.5727 19.1656 6.54197 19.1384C6.52441 19.1241 6.44105 19.1059 6.38836 19.1059C6.29177 19.1059 6.20836 19.1345 6.18202 19.2046C5.69027 19.2578 5.18088 19.2838 4.67156 19.3046C4.61888 19.3072 4.55306 19.2812 4.49159 19.2682C4.28962 19.2241 4.28959 19.2253 3.69686 19.2124C3.63539 19.2111 3.55201 19.1929 3.52128 19.1747C3.39395 19.0955 3.39838 19.0085 3.33691 18.9241C3.45106 18.8695 3.56513 18.8163 3.68368 18.7631C3.92077 18.6553 4.22818 18.5605 4.41259 18.4423C4.37307 18.3787 4.32038 18.3151 4.51356 18.2631C5.06239 18.1982 5.05803 18.1982 5.20731 18.1359C5.6332 17.9593 6.05468 17.7813 6.49813 17.6073C6.61667 17.5619 6.61669 17.5372 6.40594 17.5177C6.34008 17.5125 6.26974 17.5112 6.19949 17.5138C5.97996 17.5229 5.76043 17.5463 5.54529 17.5411C5.33015 17.5372 5.17209 17.4801 4.99647 17.445C4.81645 17.4087 4.63644 17.371 4.45643 17.3333C4.25007 17.3372 4.04375 17.3736 3.83739 17.3152C3.67933 17.2697 3.48176 17.2372 3.30175 17.1996C3.43786 17.1009 3.69255 17.0256 3.89013 16.9386C4.07015 16.8594 4.07444 16.8607 4.5574 16.7996C4.78572 16.7711 4.86475 16.6243 4.67156 16.5815C4.43886 16.5295 4.19304 16.4815 3.95595 16.4321C3.74959 16.436 3.53888 16.4711 3.3413 16.4127C3.18763 16.3685 3.01197 16.3386 2.75732 16.3555C2.32704 16.3841 1.88799 16.3984 1.45332 16.4217C1.30404 16.4295 1.14154 16.4243 1.07568 16.3802C1.03177 16.349 1.15911 16.3062 1.304 16.2971C1.52353 16.2841 1.72109 16.2685 1.83085 16.2036C1.93623 16.1387 2.12939 16.1192 2.3577 16.1101C2.41917 16.1075 2.48947 16.0919 2.52021 16.0763C2.67827 16.001 2.85391 15.9361 3.19198 15.9387C3.33248 15.9127 3.40708 15.8802 3.36317 15.8491C3.33683 15.8322 3.24467 15.8101 3.19198 15.8127C2.82756 15.8257 2.46316 15.8387 2.10752 15.8621C1.94067 15.8725 1.81328 15.875 1.7079 15.8361C1.63326 15.8101 1.67277 15.7751 1.81327 15.7374C1.93621 15.7049 1.97137 15.6673 1.96259 15.6231C1.94064 15.5205 1.80889 15.4907 1.3874 15.4972C1.08444 15.5024 1.0098 15.4855 0.943939 15.3972C0.926376 15.3764 0.882547 15.3478 0.913282 15.3335C1.10208 15.2452 1.22502 15.1362 1.58066 15.0946C1.72116 15.079 1.87038 15.079 1.9582 15.0453C2.04601 15.0115 2.12508 14.9725 2.21728 14.9401C2.33144 14.9011 2.41039 14.8648 2.3577 14.8401C2.26989 14.7959 2.12944 14.792 1.96699 14.8076C1.82649 14.8206 1.67721 14.8219 1.53232 14.8297C1.27327 14.844 1.06257 14.8102 1.03184 14.7531C0.948415 14.6025 0.860577 14.4531 0.785937 14.3025C0.777156 14.2843 0.799049 14.2609 0.834174 14.2453C0.957111 14.1908 1.08888 14.1389 1.21621 14.0856C1.36549 14.0246 1.60262 14.0363 1.80459 14.0246C2.08998 14.0077 2.08988 14.009 2.47186 13.8843C2.62114 13.835 2.8802 13.8545 3.03387 13.8103C3.08217 13.796 3.15681 13.7727 3.14364 13.7597C3.12608 13.7428 3.03831 13.7298 2.97245 13.722C2.91098 13.7142 2.83636 13.7103 2.7705 13.7142C1.97141 13.7519 1.17673 13.7921 0.37764 13.8285C0.241531 13.835 0.0922457 13.8064 0.043949 13.7662C-0.00434774 13.7285 0.00878122 13.6831 0 13.6402C0.127328 13.587 0.272162 13.5376 0.381928 13.4805C0.465349 13.4363 0.56196 13.4169 0.728803 13.4143C0.948334 13.4104 1.1635 13.3948 1.40937 13.3831C1.86599 13.1935 2.31381 12.9948 2.80555 12.8052C3.00313 12.7286 2.95491 12.6507 2.99443 12.5689C3.03394 12.4936 3.3281 12.5053 3.52567 12.4832C3.68374 12.465 3.73636 12.4235 3.67489 12.3949C3.63976 12.378 3.56077 12.3585 3.49931 12.3585C3.35442 12.3585 3.20953 12.3702 3.06464 12.3767C2.91975 12.3832 2.75291 12.3793 2.63437 12.4014C2.52021 12.4222 2.44553 12.4663 2.37089 12.504C2.28747 12.5455 2.17778 12.5598 2.01093 12.5624C1.79579 12.565 1.58067 12.5767 1.36553 12.5858C1.12843 12.5351 0.882509 12.4858 0.654197 12.4325C0.610291 12.4222 0.601462 12.3923 0.605853 12.3728C0.614634 12.3222 0.548792 12.291 0.403902 12.2663C0.280965 12.2455 0.179972 12.2157 0.0658163 12.1897C0.153629 12.1547 0.250256 12.1209 0.320506 12.0832C0.474178 12.004 0.667386 11.9469 1.00107 11.9495C1.13279 11.8988 1.23814 11.8365 1.40937 11.8014C1.57182 11.7677 1.84844 11.8014 1.97138 11.7248C2.03285 11.6872 2.1251 11.6443 2.24365 11.6287C2.43245 11.6041 2.67832 11.6171 2.78808 11.5443C2.85394 11.5028 2.9505 11.4651 3.07782 11.4547C3.22271 11.443 3.37196 11.4404 3.47733 11.4158C3.53441 11.4028 3.59589 11.382 3.59589 11.3638C3.59589 11.3521 3.50814 11.334 3.44667 11.3262C3.3896 11.3171 3.31487 11.3106 3.24901 11.3132C3.02948 11.321 2.81434 11.3353 2.59481 11.343C2.53334 11.3456 2.46312 11.3366 2.39726 11.3288C2.20407 11.308 2.21722 11.282 2.37089 11.2353C2.52456 11.1898 2.63438 11.1314 2.76171 11.0781C2.90221 11.069 3.07781 11.0729 3.1744 11.0483C3.33686 11.008 3.45098 10.9496 3.5827 10.8989C3.72759 10.8911 3.87686 10.8885 4.01297 10.8743C4.07005 10.8691 4.09642 10.8405 4.14471 10.8236C4.23252 10.7912 4.30723 10.7444 4.42577 10.7288C4.61896 10.7055 4.85605 10.7145 4.9702 10.6431C5.03606 10.6016 5.13701 10.5574 5.25995 10.5548C5.60241 10.5496 5.74731 10.4782 5.92293 10.4107C6.05465 10.36 6.33566 10.386 6.48055 10.3354C6.57714 10.3029 6.64743 10.2626 6.74403 10.2315C6.78354 10.2185 6.86694 10.212 6.93279 10.2081C7.29282 10.1886 7.65723 10.1743 8.01726 10.1536C8.07434 10.1497 8.12707 10.1302 8.17098 10.1146C8.26318 10.0808 8.32019 10.0341 8.43435 10.012C8.54851 9.98994 8.71094 9.98994 8.85144 9.98345C9.30367 9.96397 9.33883 9.96915 9.54519 9.85878C9.71203 9.76917 10.1204 9.83281 10.2565 9.73412C10.3355 9.67698 10.4804 9.63024 10.7394 9.62374C11.1038 9.61465 11.4639 9.58998 11.8283 9.5731C12.1532 9.55751 12.1488 9.55751 12.5001 9.43674C12.6581 9.3822 12.8909 9.39 13.0972 9.37961C13.3168 9.36922 13.5187 9.35365 13.6241 9.28872C13.7295 9.22509 13.9226 9.2043 14.1465 9.19521C14.3529 9.18612 14.5857 9.19262 14.7481 9.14068C15.1433 9.01602 15.1389 9.01471 15.4155 9.00172C15.8502 8.98095 16.2848 8.96017 16.7195 8.9381C17.0093 8.92381 17.3122 8.92122 17.5844 8.89265C17.782 8.87187 17.8698 8.79915 17.9971 8.74851C18.3571 8.72903 18.7172 8.70955 19.0772 8.69137C19.5821 8.66539 20.0914 8.64203 20.6007 8.61735C20.8202 8.56801 20.8511 8.45893 21.2199 8.45373C21.4394 8.45114 21.6545 8.43426 21.8741 8.42387C22.2385 8.40569 22.5985 8.38231 22.9629 8.37322C23.2395 8.36673 23.2878 8.2966 23.4326 8.25245C23.4809 8.23687 23.5249 8.2148 23.582 8.2109C24.1527 8.17454 24.741 8.16675 25.2987 8.11351C25.3557 8.10831 25.4084 8.08104 25.4216 8.06156C25.4304 8.05117 25.3557 8.03171 25.3074 8.02262C25.2504 8.01223 25.1758 8.00184 25.1143 8.00443C23.301 8.09144 21.4877 8.17974 19.6744 8.26675C19.4197 8.27973 19.4197 8.27843 18.8006 8.42127C18.7479 8.43296 18.6864 8.44594 18.6206 8.44983C18.3308 8.46542 18.0366 8.47452 17.7512 8.494C17.5185 8.50958 17.3254 8.49398 17.1585 8.44723C17.04 8.41347 16.917 8.40309 16.7677 8.40569C16.6009 8.40958 16.4912 8.42387 16.3946 8.45893C16.2673 8.50698 16.2014 8.5693 15.9335 8.58229C14.6998 8.63813 13.466 8.70046 12.2366 8.76019C12.0653 8.74201 11.9819 8.71475 12.0258 8.68228C12.0522 8.6628 12.1049 8.63683 12.1576 8.63424C12.6625 8.60697 13.1718 8.5836 13.6767 8.55762C13.747 8.55373 13.8435 8.55631 13.8831 8.54333C14.0762 8.48489 14.1466 8.3901 14.511 8.38361C14.7217 8.37971 14.9369 8.36024 15.1388 8.34206C15.1959 8.33686 15.2486 8.30959 15.2618 8.29011C15.2662 8.27972 15.1959 8.26024 15.1432 8.25115C14.95 8.21349 14.7262 8.25895 14.533 8.23298C14.4671 8.22389 14.3748 8.2109 14.3617 8.19532C14.3529 8.18104 14.4275 8.15766 14.4802 8.14337C14.5285 8.13039 14.5943 8.1187 14.6602 8.11481C15.2398 8.08494 15.8194 8.05377 16.399 8.0304C16.6361 8.02131 16.8029 7.98884 16.9083 7.92911C16.9873 7.88496 17.0839 7.86159 17.2332 7.8551C18.2474 7.80705 19.2616 7.75381 20.2802 7.70966C20.5349 7.69927 20.6666 7.65642 20.772 7.60058C20.8554 7.55643 20.952 7.54084 21.1145 7.53305C22.5678 7.46553 24.0123 7.39021 25.4656 7.32529C25.7334 7.3136 25.8125 7.25776 25.9486 7.20971C25.9969 7.19283 26.0275 7.17205 26.089 7.16166C26.1505 7.15128 26.2295 7.15256 26.3041 7.14997C27.4632 7.09413 28.6224 7.0344 29.786 6.98246C30.0582 6.97077 30.1108 6.90584 30.2513 6.86039C30.2996 6.8461 30.3435 6.82274 30.4006 6.81884C31.2699 6.77469 32.1393 6.73314 33.0086 6.69028C33.5882 6.66172 34.1677 6.63314 34.7473 6.60587C35.0326 6.59289 35.0327 6.59158 35.419 6.46822C35.4629 6.45393 35.5245 6.43705 35.5815 6.43315C37.25 6.35005 38.914 6.27085 40.5824 6.18904C40.7229 6.18255 40.8239 6.15266 40.8941 6.10851C40.9644 6.06436 41.0654 6.03449 41.2015 6.028C42.5056 5.96307 43.8095 5.89945 45.1179 5.83842C45.355 5.82803 45.5218 5.79686 45.6272 5.73842C45.7062 5.69427 45.8028 5.67091 45.9521 5.66441C47.2561 5.60208 48.5602 5.53584 49.8686 5.47611C50.1189 5.46442 50.2418 5.42028 50.3647 5.36833C50.4086 5.35015 50.4438 5.32029 50.4964 5.31769C51.1463 5.28133 51.7916 5.24367 52.4458 5.219C52.7181 5.20861 52.8103 5.15406 52.9201 5.10212C53.0079 5.06057 53.1089 5.04629 53.2757 5.04109C53.6402 5.02941 54.0002 5.00734 54.3558 4.98526C54.4085 4.98137 54.4744 4.9528 54.4788 4.93462C54.4875 4.90085 54.3865 4.87748 54.2197 4.86579C52.481 4.9502 50.738 5.0346 48.9993 5.119C48.7139 5.13329 48.7139 5.1333 48.3275 5.25666C48.2836 5.27094 48.2221 5.28783 48.1606 5.29172C46.4922 5.37353 44.8282 5.45405 43.1597 5.53586C43.0192 5.54235 42.9183 5.57221 42.848 5.61637C42.7778 5.66052 42.6767 5.69038 42.5406 5.69688C40.9468 5.77479 39.3531 5.85401 37.7549 5.92803C37.5178 5.93841 37.351 5.96827 37.2456 6.028C37.1666 6.07215 37.07 6.09554 36.9207 6.10203C35.3972 6.17475 33.8779 6.25136 32.35 6.32148C32.1963 6.32797 32.0822 6.29031 32.091 6.25525C32.0954 6.23707 32.1612 6.20722 32.2139 6.20462C33.0086 6.16177 33.799 6.11761 34.598 6.08515C34.8659 6.07476 34.9448 6.01762 35.081 5.96957C35.1249 5.95269 35.16 5.93062 35.2171 5.92153C35.2786 5.91114 35.3576 5.91244 35.4322 5.90984C37.3158 5.81765 39.1994 5.72415 41.0874 5.63715C41.3596 5.62416 41.4122 5.56052 41.5527 5.51507C41.601 5.49949 41.645 5.47612 41.702 5.47353C42.2816 5.44236 42.8611 5.41509 43.4407 5.38782C44.4549 5.33847 45.4691 5.28912 46.4878 5.23978C46.7819 5.22549 46.7819 5.22549 47.1595 5.10342C47.2034 5.08914 47.265 5.07097 47.322 5.06837C50.0047 4.93722 52.6874 4.80606 55.3701 4.6762C55.5106 4.66971 55.6115 4.63984 55.6818 4.59569C55.752 4.55284 55.853 4.52167 55.9891 4.51388C59.6157 4.33728 63.238 4.16067 66.8647 3.98666C67.1017 3.97497 67.2686 3.9477 67.3739 3.88666C67.4486 3.84251 67.5495 3.81914 67.6988 3.81135C71.6855 3.61787 75.6722 3.42438 79.6632 3.2296C82.3459 3.09974 85.0286 2.96729 87.7113 2.84003C87.9572 2.82834 88.0888 2.78808 88.2118 2.73484C88.2513 2.71666 88.2908 2.68679 88.3435 2.68419C88.9187 2.65173 89.4938 2.62186 90.069 2.592C90.249 2.62706 90.429 2.66083 90.609 2.69589C90.7451 2.64654 90.8769 2.5959 91.013 2.54655C91.8824 2.50889 92.7385 2.45045 93.6166 2.43227C93.6737 2.43098 93.7351 2.45565 93.7966 2.46864C94.2049 2.55045 94.4377 2.54395 94.6967 2.43487C94.7889 2.39592 94.8679 2.36086 95.0084 2.35436C95.4431 2.33099 95.8822 2.31541 96.3125 2.28814C96.5452 2.27385 96.7383 2.28683 96.9052 2.33358C97.0237 2.36735 97.1467 2.38164 97.2916 2.37385C98.0907 2.33489 98.8854 2.29723 99.6845 2.25567C99.7416 2.25307 99.7942 2.23099 99.8381 2.21541C99.9303 2.18165 100.009 2.14529 100.097 2.11023C100.216 2.13231 100.347 2.14919 100.444 2.17776C100.567 2.21152 100.681 2.21152 100.848 2.20243C104.036 2.0453 107.228 1.89207 110.415 1.73364C110.687 1.72066 110.806 1.7752 110.99 1.80377C111.052 1.81416 111.113 1.82714 111.179 1.82974C111.249 1.83233 111.324 1.82455 111.394 1.82065C113.787 1.70378 116.18 1.5882 118.573 1.47133C118.889 1.45575 118.889 1.45575 119.359 1.53626C119.416 1.54665 119.491 1.55834 119.552 1.55444C120.641 1.5038 121.73 1.44926 122.814 1.39732C122.955 1.39083 123.073 1.4116 123.201 1.44147C123.451 1.4999 123.468 1.49991 123.653 1.4142C123.741 1.37395 123.833 1.34926 123.978 1.33758C124.136 1.32459 124.263 1.3285 124.386 1.35187C124.562 1.38434 124.689 1.43887 124.957 1.42458C126.116 1.36355 127.279 1.31291 128.434 1.25058C128.698 1.2363 128.838 1.28045 129.014 1.31291C129.075 1.3246 129.132 1.34278 129.198 1.34667C129.264 1.35057 129.343 1.34147 129.413 1.33758C130.862 1.26745 132.315 1.19864 133.76 1.12332C134.032 1.10904 134.151 1.16487 134.335 1.19344C134.397 1.20382 134.467 1.22201 134.524 1.21942C135.393 1.17916 136.267 1.1363 137.136 1.09344C137.448 1.07786 137.448 1.07916 137.922 1.15837C137.979 1.16876 138.054 1.17915 138.116 1.17655C139.13 1.12851 140.148 1.07916 141.163 1.02982C141.474 1.01423 141.474 1.01424 142.374 1.08176C142.44 1.08696 142.51 1.09476 142.576 1.09216C143.735 1.03632 144.899 0.981774 146.058 0.92204C146.291 0.910353 146.484 0.920738 146.651 0.967487C146.769 1.00125 146.892 1.01554 147.037 1.00775C148.341 0.94412 149.65 0.88309 150.949 0.815564C151.2 0.802579 151.362 0.831136 151.538 0.868794C151.595 0.88178 151.652 0.899964 151.718 0.905158C151.783 0.910352 151.858 0.905154 151.928 0.901258C153.232 0.837629 154.541 0.777897 155.84 0.709073C156.104 0.694789 156.244 0.738937 156.42 0.771402C156.481 0.783089 156.547 0.806464 156.6 0.805166C157.109 0.78309 157.619 0.763618 158.123 0.731154C158.396 0.712974 158.514 0.772698 158.699 0.801266C158.76 0.810356 158.83 0.829844 158.887 0.827247C159.976 0.776603 161.065 0.723365 162.15 0.668826C162.303 0.661034 162.418 0.67271 162.54 0.706473C162.703 0.751923 162.892 0.770104 163.129 0.755819C163.634 0.725952 164.143 0.705181 164.652 0.680508C164.951 0.666224 164.951 0.666228 165.864 0.733754C165.93 0.738948 166 0.746734 166.066 0.744137C166.935 0.702583 167.809 0.662329 168.674 0.61688C168.907 0.603894 169.1 0.615578 169.267 0.662326C169.385 0.696089 169.504 0.710381 169.653 0.70259C170.452 0.663633 171.247 0.624672 172.046 0.585715C172.336 0.571431 172.626 0.546752 172.916 0.546752C173.126 0.54805 173.28 0.610379 173.469 0.641545C173.521 0.650635 173.609 0.640258 173.679 0.637661C174.694 0.588316 175.712 0.542861 176.722 0.487023C176.986 0.472739 177.126 0.516887 177.302 0.549352C177.363 0.561039 177.429 0.584414 177.482 0.583116C177.846 0.568831 178.206 0.549351 178.571 0.53247C179.005 0.511692 179.444 0.49611 179.875 0.467541C180.226 0.444167 180.358 0.557139 180.639 0.561034C180.854 0.56493 181.073 0.542858 181.288 0.53247C181.723 0.511692 182.158 0.488321 182.592 0.470141C182.746 0.463648 182.865 0.442862 182.913 0.396114C182.922 0.387024 182.847 0.367553 182.799 0.355866C182.215 0.223412 182.215 0.223406 181.626 0.251974C181.262 0.270154 180.902 0.288338 180.538 0.30392C180.476 0.306517 180.406 0.29613 180.344 0.288338C180.169 0.266263 180.186 0.240294 180.336 0.193545C180.485 0.146797 180.599 0.0896649 180.726 0.0364236C180.906 0.0701864 181.082 0.103937 181.262 0.1377C181.407 0.131207 181.552 0.123427 181.697 0.116934C182.421 0.0831714 183.146 0.0481076 183.87 0.0169419C183.923 0.0143448 183.989 0.04032 184.05 0.0533056C184.226 0.0909641 184.384 0.123419 184.638 0.109135C185.288 0.0714767 185.942 0.0442068 186.592 0.0117426C186.878 -0.00254166 186.878 -0.00254039 187.378 0.0779708C187.435 0.0870608 187.51 0.09745 187.571 0.0948528C188.226 0.0649858 188.875 0.0325254 189.53 0.00135975C189.67 -0.00513309 189.806 0.0117477 189.907 0.0494061C189.947 0.0649889 189.938 0.0909552 190.105 0.30392C190.623 0.47663 190.978 0.458459 191.339 0.442876C191.492 0.436383 191.628 0.429884 191.729 0.403913C191.782 0.389628 191.848 0.368848 191.848 0.351967C191.848 0.338981 191.751 0.3182 191.69 0.315603C191.255 0.289632 190.842 0.344179 190.416 0.355866C190.219 0.361061 190.048 0.31561 190.013 0.241592C190.004 0.220815 189.991 0.19874 189.977 0.177963C189.964 0.157186 189.956 0.135112 189.942 0.114335C189.771 0.107842 189.67 0.131212 189.595 0.175363C189.534 0.211723 189.446 0.253277 189.328 0.272756C189.209 0.293533 189.047 0.289644 188.902 0.296137C188.761 0.30263 188.608 0.319509 188.476 0.31042C188.344 0.300031 188.239 0.262366 188.116 0.238992C188.059 0.227305 187.988 0.21043 187.931 0.213027C187.426 0.235103 186.926 0.25717 186.425 0.285738C186.162 0.301321 186.03 0.24679 185.863 0.213027C185.732 0.187056 185.6 0.19354 185.578 0.253274C185.521 0.396117 185.723 0.455848 186.171 0.428578C186.54 0.405204 186.873 0.40132 187.163 0.489623C187.203 0.50131 187.295 0.506502 187.352 0.503905C187.712 0.488322 188.067 0.468842 188.427 0.453259C188.493 0.450662 188.564 0.455848 188.625 0.461042C189.521 0.531165 189.521 0.53247 189.824 0.516887C189.969 0.509096 190.109 0.502602 190.096 0.30522C190.373 0.0935536 190.812 0.0792719 191.238 0.0481063C191.514 0.0286278 191.633 0.0857673 191.813 0.115634C191.874 0.126023 191.94 0.146796 191.997 0.144199C192.941 0.101346 193.881 0.0558901 194.82 0.00784308C194.978 5.16698e-05 195.092 0.00784435 195.215 0.0416071C195.373 0.0844598 195.549 0.111735 195.799 0.0961527C196.3 0.064987 196.809 0.045513 197.318 0.0195416C197.578 0.00655592 197.578 0.00654261 198.1 0.0870538C198.157 0.0961438 198.232 0.106533 198.293 0.103936C198.802 0.0818602 199.308 0.0545985 199.812 0.0312243C199.953 0.0247314 200.08 0.0429095 200.19 0.0779708C200.3 0.113032 200.431 0.13121 200.568 0.124717C201.077 0.101343 201.582 0.07538 202.087 0.0520058C202.148 0.0494087 202.223 0.058498 202.28 0.067588C202.816 0.148099 202.816 0.148086 203.061 0.1351C203.421 0.115622 203.79 0.106542 204.146 0.0805705C204.493 0.0545991 204.673 0.12991 204.91 0.171464C205.56 0.141597 206.214 0.11693 206.859 0.0805705C207.123 0.0649877 207.263 0.107837 207.439 0.141599C207.5 0.153286 207.562 0.177962 207.619 0.176663C207.838 0.171469 208.054 0.157187 208.269 0.146799C208.484 0.13641 208.703 0.126023 208.919 0.115634C209.164 0.153293 209.327 0.241594 209.678 0.211727C209.889 0.193547 210.113 0.189651 210.328 0.179263C210.543 0.168874 210.763 0.158487 210.978 0.148099C211.123 0.141606 211.272 0.137704 211.412 0.126017C211.671 0.106539 211.799 0.170176 211.983 0.198745C212.045 0.207835 212.115 0.223407 212.172 0.22081C212.607 0.20263 213.046 0.187049 213.472 0.157182C213.801 0.133807 214.025 0.172769 214.257 0.227309C214.306 0.238996 214.389 0.245489 214.451 0.242891C214.96 0.220816 215.465 0.193538 215.97 0.170164C216.106 0.163671 216.238 0.184448 216.347 0.21821C216.462 0.253272 216.589 0.270166 216.729 0.263673C217.234 0.240299 217.744 0.21432 218.249 0.190946C218.31 0.188348 218.385 0.198739 218.442 0.209127C218.934 0.289639 218.934 0.290938 219.223 0.275356C219.294 0.27146 219.368 0.268853 219.438 0.264957C219.798 0.246777 220.172 0.240293 220.523 0.209127C220.927 0.174066 221.221 0.218219 221.506 0.292238C221.866 0.276655 222.235 0.267563 222.586 0.241592C222.85 0.222113 222.99 0.271456 223.166 0.30392C223.228 0.315607 223.293 0.338982 223.346 0.336385C223.855 0.314309 224.365 0.294837 224.865 0.262373C225.137 0.244193 225.256 0.302618 225.44 0.332485C225.502 0.342874 225.568 0.361063 225.625 0.358466C225.915 0.348077 226.204 0.332487 226.494 0.318203C226.832 0.301321 226.832 0.302619 227.28 0.381831C227.491 0.41949 227.702 0.389621 227.908 0.380531C228.127 0.370143 228.334 0.362354 228.509 0.415595C228.619 0.449358 228.751 0.470136 228.887 0.464941C229.177 0.453254 229.471 0.441573 229.756 0.422094C229.985 0.406512 230.182 0.416894 230.349 0.464941C230.468 0.498704 230.591 0.515596 230.735 0.507804C231.385 0.476639 232.039 0.444162 232.689 0.414295C232.746 0.411698 232.825 0.42339 232.878 0.435077C233.001 0.458451 233.12 0.484417 233.238 0.510388C233.523 0.498701 233.818 0.49352 234.099 0.47534C234.397 0.45716 234.669 0.450666 234.902 0.522087C234.95 0.53767 235.021 0.559733 235.078 0.558435C235.297 0.55324 235.512 0.540258 235.728 0.52987C235.943 0.519481 236.162 0.509094 236.377 0.498706C236.628 0.53117 236.786 0.624665 237.137 0.594798C237.348 0.576618 237.572 0.572723 237.787 0.562334C238.002 0.551946 238.221 0.54026 238.437 0.53117C238.507 0.528573 238.586 0.522076 238.647 0.52727C238.713 0.532465 238.77 0.550648 238.827 0.563634C239.003 0.601292 239.165 0.638955 239.416 0.61688C239.626 0.5987 239.85 0.594803 240.066 0.583116C240.36 0.568831 240.36 0.568834 240.847 0.650644C241.045 0.684406 241.269 0.640257 241.457 0.668826C241.585 0.688304 241.694 0.720761 241.817 0.742837C241.87 0.751927 241.953 0.755817 242.015 0.75322C242.305 0.741533 242.599 0.729851 242.884 0.710373C243.117 0.69479 243.31 0.710371 243.473 0.757119C243.591 0.790882 243.71 0.805174 243.859 0.797382C244.583 0.761023 245.308 0.729847 246.028 0.689591C246.274 0.675307 246.471 0.697388 246.607 0.744137C246.84 0.824648 247.17 0.729854 247.411 0.794783C247.56 0.835038 247.71 0.881789 247.982 0.862311C248.482 0.828548 248.992 0.810358 249.497 0.786984C249.677 0.822045 249.857 0.857114 250.041 0.892175C250.331 0.877891 250.621 0.863598 250.91 0.850612C251.125 0.840224 251.345 0.828538 251.56 0.819448C251.63 0.816851 251.705 0.811655 251.771 0.818148C251.837 0.824641 251.889 0.841526 251.951 0.854512C252.254 0.918142 252.254 0.919447 252.754 0.893475C252.969 0.881788 253.176 0.873997 253.356 0.925939C253.523 0.973986 253.72 0.983071 253.949 0.968786C254.379 0.942815 254.814 0.923338 255.253 0.905158C255.389 0.898665 255.516 0.920741 255.63 0.954504C255.801 1.00775 256.012 1.00255 256.227 0.988268C256.513 0.970088 256.794 0.951912 257.035 1.02463C257.083 1.04021 257.158 1.06228 257.211 1.06098C257.571 1.05059 257.935 1.04281 258.287 1.01813C258.638 0.99346 258.809 1.07397 259.051 1.11293C259.411 1.09604 259.775 1.07916 260.135 1.06228C260.205 1.05838 260.289 1.0467 260.35 1.0532C260.609 1.08047 260.758 1.17786 261.114 1.14799C261.32 1.13111 261.544 1.12592 261.76 1.12202C261.817 1.12073 261.891 1.14279 261.931 1.15967C261.953 1.16876 261.931 1.19343 261.904 1.20642C261.825 1.24278 261.729 1.27655 261.659 1.31421C261.65 1.3194 261.733 1.34277 261.781 1.35316C261.9 1.37653 262.036 1.37264 262.194 1.36226C262.33 1.35317 262.471 1.37135 262.567 1.4103C262.607 1.42589 262.594 1.45185 262.51 1.53756C262.51 1.60119 262.603 1.57261 262.633 1.53106C262.682 1.47133 262.589 1.45185 262.414 1.48431C262.291 1.50769 262.229 1.54145 262.26 1.56872C262.278 1.58301 262.361 1.60119 262.51 1.53756C262.897 1.45965 263.187 1.44537 263.476 1.43108C263.551 1.42719 263.639 1.41419 263.691 1.42199C263.88 1.45315 264.056 1.49082 264.24 1.52588C264.451 1.51809 264.649 1.4986 264.855 1.54924C265.145 1.62066 265.158 1.61417 265.439 1.59989C265.584 1.5921 265.729 1.58562 265.874 1.57912C266.018 1.57263 266.133 1.5921 266.26 1.62197C266.519 1.683 266.541 1.683 266.712 1.59989C266.813 1.54924 266.883 1.53237 267.011 1.55574C267.432 1.63495 267.437 1.64014 267.797 1.61677C268.095 1.59729 268.376 1.5921 268.596 1.66612C268.745 1.71806 268.793 1.70637 268.912 1.65183C269.228 1.50769 269.373 1.51029 269.966 1.61417C270.242 1.66352 270.528 1.61028 270.809 1.60379C271.046 1.59859 271.213 1.62975 271.23 1.71156C271.243 1.76221 271.283 1.79857 271.441 1.81546C271.502 1.82195 271.577 1.83103 271.638 1.82844C272.003 1.81285 272.363 1.79467 272.727 1.77649C272.912 1.7674 273.013 1.70638 272.978 1.62587C272.938 1.54016 273.008 1.50899 273.272 1.48431C273.43 1.47003 273.557 1.47264 273.684 1.49601C273.825 1.52198 273.785 1.54536 273.663 1.59211C273.368 1.70638 273.403 1.77649 273.781 1.8557C273.913 1.88297 274.018 1.90766 274.049 1.94791C274.066 1.96869 274.049 1.99596 274.088 2.01154C274.304 2.09854 274.602 2.15439 274.936 2.19594C275.256 2.16088 275.476 2.21931 275.722 2.26605C275.915 2.30241 276.143 2.27126 276.35 2.25827C276.582 2.24399 276.775 2.25437 276.942 2.30242C277.061 2.33618 277.184 2.35176 277.329 2.34527C277.618 2.33098 277.913 2.3219 278.198 2.30112C278.444 2.28294 278.628 2.30891 278.782 2.35306C278.975 2.4089 279.19 2.37124 279.392 2.37903C279.664 2.38812 279.801 2.50369 280.156 2.47252C280.367 2.45434 280.587 2.44785 280.806 2.44266C280.863 2.44136 280.933 2.46344 280.982 2.47902C281.214 2.55044 281.487 2.54655 281.785 2.52577C281.991 2.51148 282.193 2.4985 282.395 2.54785C282.729 2.63096 283.098 2.70368 283.449 2.7803C283.497 2.84003 283.462 2.91014 283.713 2.9452C283.844 2.96338 283.967 2.99066 284.068 3.02053C284.191 3.05559 284.305 3.06468 284.463 3.05559C284.749 3.03741 285.047 3.03351 285.328 3.01013C285.587 2.98935 285.75 3.03222 285.908 3.07248C286.035 3.10494 286.154 3.12052 286.307 3.09714C286.466 3.07507 286.58 3.08934 286.707 3.12441C286.887 3.17245 286.9 3.16727 287.497 3.18155C287.559 3.18285 287.633 3.20232 287.669 3.2192C287.686 3.22829 287.647 3.25428 287.616 3.26726C287.576 3.28284 287.515 3.30101 287.458 3.30491C286.808 3.33867 286.154 3.36854 285.504 3.4023C285.438 3.4062 285.368 3.4153 285.32 3.42828C285.267 3.44257 285.201 3.46203 285.201 3.48021C285.201 3.4932 285.289 3.50879 285.35 3.51788C285.543 3.54774 285.772 3.50229 285.961 3.53606C286.088 3.55813 286.193 3.58929 286.321 3.61007C286.373 3.61916 286.457 3.61787 286.523 3.61527C286.742 3.60618 286.957 3.5932 287.177 3.5854C287.238 3.58411 287.309 3.5971 287.366 3.60749C287.787 3.6854 287.787 3.6854 288.152 3.66851C288.296 3.66202 288.45 3.64254 288.586 3.65033C288.718 3.65812 288.832 3.69318 288.951 3.71526C289.197 3.76201 289.429 3.80746 289.447 3.90875C289.456 3.9477 289.6 3.98146 289.745 3.98406C289.886 3.98665 290.035 3.97238 290.18 3.96459C290.522 3.94901 290.522 3.94901 290.966 4.02822C291.089 4.0503 291.22 4.05289 291.379 4.0399C291.44 4.03471 291.515 4.03991 291.581 4.0464C291.796 4.06588 291.796 4.09055 291.655 4.1373C291.458 4.20612 291.475 4.21262 292.028 4.27105C292.239 4.29313 292.402 4.33468 292.577 4.37104C292.863 4.42948 292.858 4.42947 292.669 4.50608C292.626 4.52297 292.586 4.54115 292.542 4.55933C292.415 4.60997 292.314 4.66451 292.05 4.6697C291.761 4.6749 291.471 4.69568 291.181 4.70997C290.9 4.72425 290.825 4.75541 290.852 4.84371C290.882 4.95019 290.94 4.96188 291.444 4.96058C291.589 4.96058 291.717 4.97097 291.826 5.00603C291.774 5.04758 291.677 5.08005 291.537 5.08784C291.177 5.10732 290.812 5.1242 290.452 5.14109C290.162 5.15537 289.873 5.16965 289.583 5.18393C289.403 5.19302 289.289 5.26055 289.337 5.33587C289.363 5.37872 289.385 5.42157 289.407 5.46443C289.455 5.55013 289.548 5.57222 289.842 5.56832C289.917 5.56702 289.987 5.55662 290.057 5.55922C290.342 5.56831 290.478 5.67609 290.821 5.65401C291.106 5.63583 291.405 5.63194 291.686 5.60857C291.945 5.58779 292.09 5.63455 292.27 5.66961C292.331 5.6813 292.397 5.70596 292.45 5.70466C292.814 5.69038 293.179 5.6761 293.534 5.65143C293.701 5.64104 293.802 5.64883 293.934 5.67999C294.25 5.75531 294.259 5.75141 294.729 5.72804C295.071 5.70986 295.076 5.71246 295.515 5.79167C295.638 5.81375 295.769 5.81374 295.927 5.80335C296.134 5.79037 296.349 5.76959 296.564 5.78907C296.63 5.79426 296.713 5.80985 296.735 5.82673C296.748 5.83842 296.687 5.86699 296.634 5.87608C296.248 5.9436 295.796 5.93192 295.374 5.95919C295.242 5.96698 295.111 5.94231 295.001 5.90724C294.887 5.87218 294.764 5.8579 294.615 5.8644C294.325 5.87868 294.031 5.88777 293.745 5.90854C293.499 5.92672 293.328 5.89685 293.157 5.8566C293.1 5.84361 293.034 5.81894 292.977 5.82023C292.327 5.84621 291.673 5.87218 291.027 5.90854C290.768 5.92413 290.619 5.88258 290.443 5.84751C290.382 5.83583 290.321 5.81115 290.263 5.81245C290.044 5.81765 289.829 5.83193 289.609 5.84232C288.81 5.88127 288.015 5.92023 287.216 5.95659C287.164 5.95919 287.098 5.93191 287.036 5.92023C286.918 5.89685 286.795 5.87477 286.672 5.8527C286.452 5.86309 286.237 5.87607 286.018 5.88386C285.86 5.88906 285.719 5.90724 285.697 5.95659C285.684 5.98905 285.829 6.01892 285.983 6.01632C286.132 6.01372 286.281 5.99814 286.404 6.01502C287.014 6.09813 287.014 6.09943 287.396 6.08255C287.73 6.06696 287.695 6.05397 287.989 6.12539C288.116 6.15656 288.231 6.17475 288.375 6.16696C288.735 6.14878 289.1 6.13059 289.464 6.11501C289.521 6.11241 289.596 6.1254 289.653 6.13579C290.083 6.21371 290.083 6.2163 290.439 6.19682C290.904 6.17345 290.922 6.16696 291.234 6.24617C291.449 6.30071 291.646 6.26305 291.853 6.26045C292.09 6.31109 292.349 6.35655 292.564 6.41369C292.819 6.48121 293.087 6.46951 293.376 6.45004C293.591 6.43575 293.802 6.43056 293.978 6.4838C294.145 6.53315 294.347 6.53835 294.575 6.52536C294.781 6.51368 294.992 6.489 295.207 6.51756C295.264 6.52536 295.352 6.54484 295.348 6.55653C295.343 6.57471 295.286 6.60068 295.229 6.60847C294.825 6.66171 294.382 6.66041 293.956 6.68508C293.899 6.68898 293.824 6.67469 293.767 6.6643C293.644 6.64093 293.526 6.61366 293.407 6.58899C293.192 6.59678 292.972 6.59937 292.762 6.61496C292.599 6.62664 292.476 6.62536 292.358 6.59419C292.248 6.56562 292.129 6.53055 291.998 6.52146C291.866 6.51237 291.712 6.53185 291.567 6.53965C291.423 6.54744 291.256 6.54353 291.142 6.56431C291.027 6.58509 290.957 6.63054 290.882 6.6669C290.799 6.70716 290.685 6.72015 290.518 6.72405C290.364 6.72794 290.241 6.72274 290.127 6.68638C290.079 6.6708 290.013 6.65911 289.947 6.64872C289.886 6.63963 289.816 6.62534 289.758 6.62794C289.104 6.65781 288.454 6.69028 287.8 6.72145C287.475 6.73703 287.48 6.73702 286.804 6.6604C286.742 6.65391 286.667 6.64482 286.606 6.64742C286.242 6.663 285.882 6.68119 285.517 6.69937C285.148 6.71755 285.153 6.71495 284.525 6.63314C284.411 6.61756 284.244 6.63834 284.108 6.63574C283.822 6.62925 283.682 6.52017 283.348 6.54095C283.063 6.55913 282.764 6.56302 282.479 6.58639C282.22 6.60717 282.071 6.56172 281.895 6.52666C281.833 6.51498 281.768 6.489 281.715 6.4916C281.061 6.52017 280.411 6.55263 279.542 6.55653C279.326 6.55653 279.423 6.5838 279.563 6.59289C279.765 6.60718 279.831 6.57991 279.722 6.52796C279.643 6.4916 279.528 6.47341 279.436 6.4825C279.388 6.48769 279.326 6.51238 279.542 6.55653C279.77 6.60587 279.757 6.63314 279.796 6.64872C279.893 6.68638 280.029 6.70196 280.169 6.69677C280.389 6.68768 280.604 6.67469 280.824 6.6669C280.885 6.66431 280.96 6.6734 281.017 6.68378C281.5 6.7643 281.504 6.7695 282.018 6.73833C282.18 6.72924 282.299 6.72924 282.426 6.75391C282.602 6.78767 282.729 6.8448 282.997 6.82662C283.353 6.80195 283.717 6.78768 284.081 6.77339C284.138 6.7708 284.2 6.79417 284.266 6.80456C284.446 6.83572 284.578 6.89416 284.845 6.86949C285.052 6.85001 285.276 6.8448 285.495 6.84091C285.552 6.83961 285.64 6.86039 285.666 6.87727C285.719 6.90714 285.653 6.94221 285.504 6.96688C285.443 6.97727 285.359 6.97467 285.289 6.97856C284.999 6.99285 284.709 7.00842 284.419 7.02011C284.266 7.0266 284.121 7.04609 284.103 7.09414C284.09 7.1266 284.248 7.15516 284.398 7.15257C284.617 7.14867 284.837 7.13828 285.047 7.1214C285.421 7.09283 285.745 7.10062 286.048 7.18243C286.264 7.23957 286.25 7.2188 286.479 7.38761C286.536 7.43047 286.707 7.43436 286.856 7.43176C287.216 7.42527 287.383 7.44475 287.352 7.48501C287.313 7.53435 287.186 7.54993 287.023 7.55642C286.733 7.56681 286.444 7.5837 286.154 7.59798C286.084 7.60188 286.004 7.60966 285.939 7.60706C285.873 7.60447 285.811 7.58889 285.754 7.5772C285.631 7.55253 285.526 7.51486 285.394 7.50577C285.262 7.49668 285.109 7.51616 284.964 7.52395C284.819 7.53045 284.665 7.54993 284.534 7.54084C284.402 7.53175 284.292 7.4928 284.174 7.46942C284.117 7.45774 284.046 7.43955 283.989 7.44084C283.699 7.45123 283.41 7.46812 283.12 7.48111C282.764 7.49799 282.764 7.49799 282.334 7.41748C282.211 7.3941 282.084 7.39541 281.921 7.4058C281.57 7.42657 281.566 7.42267 280.925 7.34735C280.863 7.33956 280.788 7.33047 280.727 7.33437C280.073 7.36424 279.423 7.3967 278.773 7.42786C278.216 7.45513 278.216 7.45514 277.908 7.585C277.68 7.68109 277.675 7.68109 277.899 7.72524C278.079 7.7616 278.242 7.81484 278.439 7.83431C278.624 7.85249 278.852 7.79406 279.054 7.8538C279.155 7.88366 279.287 7.91613 279.414 7.92132C279.616 7.92782 279.831 7.89015 280.025 7.94729C280.121 7.97586 280.266 8.00573 280.389 8.00703C280.604 8.00963 280.824 7.98884 281.039 7.97975C281.105 7.97716 281.179 7.97716 281.241 7.98365C281.307 7.99144 281.364 8.00703 281.421 8.02002C281.596 8.06417 281.785 8.08494 282.013 8.06286C282.387 8.0265 282.72 8.04468 283.01 8.12779C283.05 8.13948 283.146 8.14078 283.208 8.13559C283.366 8.1226 283.502 8.1213 283.62 8.14597C283.669 8.15636 283.739 8.17453 283.73 8.18622C283.717 8.2057 283.664 8.23167 283.607 8.23817C283.194 8.28232 282.751 8.28752 282.325 8.31089C282.268 8.31349 282.198 8.2966 282.141 8.28491C282.018 8.26154 281.912 8.22259 281.781 8.2135C281.649 8.20441 281.495 8.22129 281.35 8.22778C281.206 8.23428 281.052 8.25376 280.92 8.24597C280.788 8.23688 280.666 8.20441 280.56 8.17584C280.437 8.14337 280.319 8.13949 280.156 8.15247C279.945 8.16935 279.726 8.17195 279.511 8.18104C279.392 8.15636 279.274 8.12908 279.151 8.10571C279.094 8.09402 279.023 8.07975 278.962 8.08105C278.672 8.09143 278.382 8.10701 278.093 8.12129C277.803 8.13558 277.803 8.13559 277.311 8.05508C277.254 8.04599 277.179 8.0356 277.118 8.0382C276.753 8.05378 276.393 8.07325 276.029 8.08883C275.888 8.09532 275.761 8.07714 275.647 8.04208C275.537 8.00702 275.406 7.98754 275.269 7.99404C274.69 8.02131 274.11 8.04728 273.531 8.07975C273.298 8.09273 273.1 8.08105 272.942 8.0343C272.758 7.98106 272.552 7.99405 272.337 8.00443C271.849 8.03041 271.845 8.0291 271.533 7.96287C271.472 7.94988 271.41 7.92521 271.353 7.92651C270.848 7.94599 270.339 7.96417 269.838 7.99534C269.575 8.01222 269.434 7.96677 269.259 7.93301C269.197 7.92132 269.131 7.89665 269.079 7.89924C268.714 7.91353 268.35 7.92652 267.994 7.95249C267.639 7.97846 267.502 7.8577 267.235 7.85899C266.87 7.86029 266.51 7.89016 266.15 7.90834C265.86 7.92263 265.571 7.9369 265.281 7.95119C264.991 7.96547 264.701 7.97715 264.411 7.99404C264.258 8.00313 264.144 7.99144 264.016 7.95897C263.854 7.91612 263.661 7.88237 263.485 7.84341C263.217 7.78757 263.217 7.78757 262.892 7.80315C262.822 7.80704 262.747 7.80964 262.677 7.81353C262.146 7.8421 262.146 7.83951 261.47 7.7577C261.439 7.75381 261.36 7.7681 261.329 7.77848C261.237 7.81225 261.154 7.8486 261.07 7.88366C260.952 7.86288 260.807 7.8512 260.728 7.82133C260.504 7.73692 260.153 7.85249 259.924 7.76939C259.841 7.73822 259.696 7.71095 259.564 7.70316C259.428 7.69537 259.274 7.71355 259.134 7.72134C258.77 7.74082 258.77 7.73952 258.458 7.8551C258.3 7.91223 258.071 7.90184 257.865 7.91482C257.65 7.92911 257.444 7.9369 257.264 7.88366C257.101 7.83561 256.904 7.82393 256.671 7.83951C256.385 7.85899 256.091 7.87067 255.802 7.88236C255.74 7.88496 255.665 7.87847 255.604 7.87068C254.932 7.79406 254.932 7.79277 254.607 7.80965C254.462 7.81744 254.313 7.82003 254.173 7.83171C253.935 7.85249 253.755 7.82522 253.584 7.78367C253.527 7.77068 253.461 7.74602 253.404 7.74732C253.114 7.75381 252.829 7.7655 252.544 7.77718C252.324 7.78627 252.105 7.79147 251.894 7.80965C251.543 7.83952 251.371 7.7551 251.13 7.71614C250.77 7.73302 250.405 7.74471 250.045 7.76809C249.879 7.77847 249.769 7.77459 249.641 7.74342C249.479 7.70446 249.33 7.66031 249.066 7.67979C248.715 7.70576 248.346 7.71486 247.986 7.73044C247.745 7.69018 247.569 7.60836 247.222 7.63823C247.012 7.65641 246.788 7.6603 246.572 7.67069C246.283 7.68498 245.993 7.69797 245.703 7.71356C245.391 7.72914 245.396 7.72524 244.917 7.64863C244.641 7.60318 244.355 7.65382 244.074 7.66161C243.855 7.6681 243.745 7.72783 243.798 7.80445C243.85 7.88106 243.732 7.9408 243.53 7.95119C243.025 7.97586 242.515 8.00182 242.011 8.0239C241.949 8.0265 241.874 8.01741 241.817 8.00832C241.277 7.92651 241.277 7.92782 241.036 7.93951C240.676 7.95898 240.307 7.96936 239.951 7.99404C239.705 8.01092 239.525 7.98366 239.367 7.93951C239.244 7.90574 239.13 7.89795 238.972 7.90574C237.234 7.99275 235.495 8.07325 233.761 8.16286C233.502 8.17584 233.352 8.13819 233.177 8.10313C233.115 8.09144 233.058 8.06676 232.997 8.06676C232.852 8.06676 232.707 8.07845 232.562 8.08624C231.912 8.11741 231.262 8.15506 230.608 8.17844C230.332 8.18883 230.257 8.24857 230.138 8.29791C230.046 8.33557 229.941 8.35115 229.778 8.35634C229.62 8.36153 229.506 8.35504 229.383 8.32128C229.225 8.27713 229.045 8.24985 228.799 8.26803C228.514 8.28881 228.224 8.29791 227.93 8.31219C227.781 8.31869 227.666 8.34206 227.618 8.3888C227.609 8.3966 227.702 8.41608 227.754 8.42777C227.93 8.46672 228.097 8.51217 228.294 8.53944C228.496 8.56671 228.716 8.53554 228.926 8.52774C229.001 8.52515 229.071 8.51736 229.142 8.51866C229.207 8.51996 229.287 8.52646 229.335 8.53814C229.563 8.59658 229.805 8.63683 230.121 8.60177C230.393 8.61865 230.534 8.72643 230.88 8.69786C231.091 8.68098 231.311 8.67319 231.53 8.6667C231.587 8.6654 231.649 8.68878 231.71 8.70046C231.886 8.73293 232.026 8.78487 232.29 8.76279C232.571 8.73942 232.869 8.73553 233.155 8.71735C233.313 8.70696 233.427 8.71605 233.55 8.74981C233.708 8.79266 233.888 8.82512 234.134 8.80434C234.345 8.78616 234.568 8.78226 234.784 8.77058C235.065 8.75629 235.065 8.75759 235.565 8.8381C235.622 8.84719 235.697 8.85758 235.758 8.85499C236.123 8.8394 236.483 8.81992 236.847 8.80434C236.988 8.79785 237.124 8.81473 237.22 8.85239C237.26 8.86797 237.247 8.89396 237.26 8.91603C236.535 8.95109 235.811 8.98095 235.091 9.02381C234.819 9.04069 234.696 8.98744 234.516 8.95758C234.454 8.94719 234.388 8.92512 234.331 8.92771C233.822 8.94979 233.317 8.97316 232.812 9.00172C232.654 9.01081 232.536 9.00562 232.417 8.96796C232.114 8.86797 231.745 8.92251 231.403 8.9368C231.139 8.94718 231.056 8.98745 231.087 9.07315C231.126 9.17444 231.284 9.20561 231.688 9.18743C231.833 9.18093 231.978 9.17184 232.123 9.16665C232.263 9.16145 232.391 9.17833 232.505 9.21339C232.615 9.24845 232.746 9.26663 232.882 9.26144C233.172 9.24975 233.466 9.23807 233.747 9.21859C233.98 9.20301 234.173 9.21599 234.336 9.26404C234.516 9.31728 234.727 9.30559 234.937 9.2939C235.429 9.26793 235.433 9.26924 235.741 9.33417C235.802 9.34715 235.864 9.37183 235.921 9.37053C236.426 9.35105 236.935 9.33417 237.431 9.303C237.69 9.28742 237.84 9.32897 238.011 9.36273C238.072 9.37442 238.134 9.40039 238.191 9.39779C238.555 9.38351 238.92 9.36922 239.275 9.34455C239.442 9.33286 239.543 9.34065 239.679 9.37181C240.004 9.44843 240.013 9.44583 240.474 9.42116C240.614 9.41337 240.768 9.39909 240.9 9.40948C241.031 9.41987 241.137 9.45753 241.26 9.4809C241.317 9.49129 241.387 9.50557 241.449 9.50297C241.738 9.49258 242.028 9.47701 242.318 9.46272C242.59 9.44844 242.59 9.44974 243.099 9.53025C243.306 9.56401 243.521 9.53544 243.727 9.52505C243.951 9.51336 244.153 9.51337 244.324 9.56401C244.496 9.61466 244.702 9.61205 244.922 9.60166C245.128 9.59127 245.339 9.56272 245.549 9.59778C246.032 9.67829 246.032 9.67957 246.331 9.66399C246.766 9.64192 247.196 9.62114 247.635 9.60166C247.692 9.59906 247.767 9.61465 247.824 9.62504C247.947 9.64842 248.052 9.68737 248.184 9.69646C248.315 9.70684 248.469 9.69126 248.61 9.68347C249.062 9.6588 249.093 9.64971 249.396 9.73542C249.65 9.80554 249.966 9.70425 250.203 9.78476C250.34 9.83021 250.524 9.86657 250.779 9.84449C250.989 9.82631 251.209 9.82112 251.428 9.81073C251.775 9.79385 251.775 9.79516 252.214 9.87307C252.271 9.88346 252.346 9.89644 252.403 9.89384C252.693 9.88345 252.987 9.87437 253.268 9.85099C253.597 9.82372 253.808 9.87307 254.054 9.92112C254.247 9.95878 254.476 9.92761 254.682 9.91462C254.906 9.90164 255.108 9.90552 255.275 9.95617C255.45 10.0081 255.657 10.0016 255.876 9.99123C256.082 9.98214 256.293 9.95227 256.504 9.98863C256.956 10.0691 256.956 10.0691 257.285 10.0536C257.575 10.0393 257.865 10.0237 258.155 10.0133C258.212 10.0107 258.282 10.0276 258.339 10.0393C258.462 10.0627 258.568 10.1016 258.699 10.1107C258.831 10.1198 258.985 10.1029 259.13 10.0964C259.274 10.0899 259.428 10.0705 259.56 10.0782C259.692 10.086 259.814 10.1185 259.92 10.1471C260.043 10.1808 260.157 10.1847 260.324 10.1717C260.535 10.1549 260.754 10.151 260.969 10.1419C261.088 10.1665 261.211 10.1912 261.325 10.2185C261.443 10.2471 261.571 10.2445 261.733 10.2354C262.273 10.2042 262.278 10.2081 262.73 10.2886C262.936 10.325 263.151 10.2951 263.358 10.286C263.577 10.2756 263.784 10.2704 263.955 10.3224C264.122 10.3717 264.328 10.3782 264.548 10.3626C264.688 10.3522 264.837 10.3458 264.982 10.3419C265.048 10.3406 265.127 10.3457 265.175 10.3561C265.408 10.4107 265.636 10.46 265.957 10.425C266.238 10.4354 266.378 10.5418 266.717 10.5211C267.002 10.5029 267.3 10.499 267.581 10.4756C267.841 10.4548 268.025 10.4912 268.157 10.5366C268.394 10.6172 268.727 10.5081 268.965 10.5873C269.101 10.6327 269.276 10.6691 269.54 10.6496C269.829 10.6288 269.922 10.6561 270.005 10.7379C270.053 10.7847 270.045 10.8223 269.957 10.8587C269.869 10.8963 269.772 10.8899 269.632 10.847C269.47 10.799 269.276 10.7898 269.044 10.8002C268.815 10.8106 268.675 10.7431 268.486 10.7171C268.297 10.6899 268.073 10.7353 267.876 10.7003C267.41 10.6185 267.41 10.6185 267.094 10.634C266.879 10.6444 266.655 10.6496 266.444 10.6678C266.194 10.6899 266.032 10.6496 265.86 10.6133C265.799 10.6003 265.737 10.5756 265.685 10.5769C265.18 10.5964 264.67 10.6146 264.17 10.647C263.907 10.6639 263.766 10.6172 263.59 10.5847C263.529 10.573 263.463 10.5496 263.41 10.5522C262.976 10.5704 262.545 10.5938 262.111 10.6159C262.027 10.6509 261.935 10.6847 261.856 10.7223C261.773 10.7613 261.659 10.7782 261.492 10.7769C261.215 10.7769 260.943 10.8314 260.666 10.7626C260.381 10.6925 260.359 10.6964 260.082 10.7132C259.731 10.7353 259.358 10.7301 259.029 10.7808C258.971 10.7899 258.91 10.8145 258.91 10.8327C258.906 10.8444 258.998 10.8613 259.055 10.8717C259.248 10.9028 259.472 10.8574 259.665 10.8898C259.793 10.9106 259.898 10.9418 260.025 10.9639C260.078 10.9729 260.157 10.9717 260.227 10.9704C260.302 10.9691 260.372 10.96 260.442 10.9613C260.508 10.9626 260.579 10.9704 260.631 10.982C260.873 11.0314 261.127 11.0768 261.342 11.1353C261.553 11.1924 261.751 11.1535 261.961 11.1509C262.804 11.2418 262.805 11.2431 263.371 11.2145C263.511 11.208 263.656 11.2002 263.801 11.2015C263.863 11.2015 263.92 11.2249 263.981 11.2379C264.157 11.2768 264.324 11.3119 264.57 11.2911C264.78 11.2729 265.004 11.269 265.219 11.2573C265.509 11.2431 265.509 11.2431 266.001 11.3249C266.124 11.3456 266.256 11.3431 266.414 11.3327C266.55 11.3236 266.69 11.3431 266.787 11.3807C266.826 11.3963 266.813 11.4223 266.826 11.4443C266.392 11.4651 265.953 11.4794 265.531 11.5106C265.259 11.53 265.136 11.4742 264.956 11.4443C264.894 11.4339 264.829 11.4119 264.772 11.4145C264.341 11.434 263.911 11.456 263.481 11.482C263.428 11.4846 263.362 11.5145 263.358 11.5326C263.349 11.5664 263.459 11.5989 263.617 11.5976C263.827 11.5963 264.034 11.5742 264.223 11.6274C264.381 11.6742 264.578 11.695 264.811 11.6742C264.951 11.6625 265.101 11.6625 265.241 11.6521C265.615 11.6209 265.953 11.6274 266.234 11.7157C266.449 11.7391 266.659 11.717 266.866 11.7054C267.02 11.6963 267.169 11.6872 267.279 11.7118C267.511 11.7638 267.74 11.8157 268.06 11.7807C268.407 11.817 268.67 11.8936 268.96 11.956C269.096 11.9858 269.202 12.0027 269.36 11.9832C269.426 11.9755 269.505 11.9754 269.575 11.9715C269.72 11.9651 269.873 11.9456 270.005 11.9534C270.137 11.9625 270.247 12.0001 270.365 12.0235C270.422 12.0352 270.488 12.0547 270.545 12.0534C270.765 12.0469 270.98 12.0339 271.195 12.0235C271.41 12.0144 271.625 12.0053 271.84 11.9962C272.02 12.03 272.205 12.0638 272.385 12.0975C272.675 12.0832 272.964 12.0689 273.25 12.056C273.57 12.0404 273.57 12.0417 274.031 12.1222C274.238 12.1585 274.457 12.1352 274.655 12.1183C274.984 12.091 275.204 12.1404 275.436 12.1923C275.485 12.2027 275.572 12.2092 275.629 12.204C275.858 12.1858 276.055 12.2001 276.222 12.2481C276.341 12.2819 276.459 12.2975 276.604 12.291C277.109 12.2663 277.614 12.2404 278.119 12.2183C278.18 12.2157 278.251 12.2274 278.308 12.2378C278.756 12.317 278.76 12.3209 279.089 12.3001C279.383 12.2819 279.656 12.2741 279.888 12.3455C279.937 12.3611 280.011 12.3832 280.064 12.3819C280.424 12.3689 280.788 12.3546 281.144 12.3326C281.307 12.3222 281.421 12.3261 281.548 12.3559C281.71 12.3936 281.855 12.439 282.123 12.4222C282.865 12.3741 282.87 12.3819 283.748 12.4715C283.809 12.478 283.893 12.4676 283.963 12.4624C284.112 12.4494 284.222 12.4676 284.354 12.4975C284.648 12.565 284.657 12.5611 284.938 12.5468C285.153 12.5351 285.377 12.5325 285.587 12.5131C285.912 12.4845 286.127 12.5351 286.369 12.5832C286.562 12.6208 286.786 12.5897 286.992 12.578C287.216 12.565 287.418 12.5689 287.585 12.6182C287.699 12.652 287.822 12.6702 287.967 12.6637C288.472 12.6403 288.977 12.6143 289.482 12.591C289.543 12.5884 289.618 12.5988 289.675 12.6079C290.176 12.6884 290.176 12.6923 290.672 12.6624C290.83 12.6533 290.961 12.6507 291.08 12.678C291.194 12.7039 291.317 12.7286 291.436 12.7533C291.651 12.7442 291.87 12.7416 292.081 12.726C292.244 12.7143 292.358 12.7195 292.485 12.7468C292.652 12.7819 292.792 12.8429 293.056 12.813C293.192 12.7987 293.35 12.8026 293.486 12.7897C293.649 12.7728 293.758 12.7832 293.886 12.8169C294.044 12.8572 294.206 12.8987 294.461 12.8779C294.742 12.8546 295.04 12.8507 295.326 12.8325C295.484 12.8221 295.594 12.8325 295.721 12.8663C295.879 12.9091 296.059 12.9364 296.305 12.9195C296.805 12.887 296.81 12.8935 297.297 12.9753C297.42 12.9961 297.552 12.9935 297.71 12.9831C297.846 12.974 297.986 12.9935 298.083 13.0312C298.175 13.0727 298.166 13.0987 298.175 13.1208ZM259.051 1.409C258.906 1.4155 258.761 1.42329 258.55 1.31031C258.537 1.29083 258.546 1.26746 258.515 1.25058C258.445 1.21552 258.335 1.19085 258.203 1.18695C257.966 1.18176 257.681 1.2259 257.685 1.25966C257.689 1.28823 257.764 1.3129 257.909 1.33628C257.97 1.34537 258.019 1.36095 258.076 1.37134C258.243 1.40121 258.374 1.45965 258.616 1.42978C258.572 1.34927 258.594 1.38953 258.616 1.42978C258.594 1.47913 258.66 1.51419 258.818 1.52848C258.862 1.53237 258.928 1.52977 258.963 1.52198C259.099 1.49341 259.121 1.45446 259.02 1.35187C259.002 1.36875 259.015 1.39861 259.055 1.4064C259.094 1.41419 259.191 1.40771 259.239 1.39862C259.362 1.37395 259.424 1.34148 259.393 1.31421C259.375 1.29993 259.292 1.28175 259.239 1.28175C259.147 1.28175 259.064 1.31031 259.051 1.409ZM294.553 16.4685C294.232 16.4932 293.864 16.4841 293.543 16.5347C293.486 16.5438 293.429 16.5672 293.425 16.5854C293.42 16.5971 293.508 16.6139 293.561 16.623C293.679 16.6438 293.811 16.6373 293.965 16.6308C294.197 16.6217 294.333 16.6815 294.514 16.7113C294.571 16.7204 294.645 16.7269 294.707 16.7243C295.062 16.7087 295.414 16.6919 295.769 16.6737C295.831 16.6698 295.897 16.6607 295.949 16.649C296.125 16.6113 296.107 16.5867 295.936 16.5581C295.747 16.5269 295.598 16.475 295.405 16.4503C295.128 16.4152 294.847 16.462 294.553 16.4685ZM269.619 17.4165C269.404 17.4268 269.193 17.4372 268.978 17.4476C268.907 17.4515 268.833 17.4528 268.767 17.458C268.631 17.4671 268.53 17.4944 268.464 17.5372C268.565 17.571 268.688 17.5905 268.824 17.5866C269.039 17.5788 269.25 17.5619 269.465 17.558C269.698 17.5528 269.834 17.6112 270.014 17.6411C270.071 17.6502 270.141 17.6515 270.207 17.6528C270.532 17.658 270.73 17.5905 270.668 17.4957C270.624 17.4216 270.457 17.3775 270.255 17.3866C270.045 17.3957 269.83 17.4061 269.619 17.4165ZM296.055 14.5492C296.107 14.5271 296.164 14.5116 296.191 14.4921C296.27 14.4258 296.239 14.3765 296.094 14.3246C295.918 14.2609 295.703 14.3038 295.506 14.3103C295.458 14.3116 295.405 14.3388 295.378 14.3557C295.361 14.3674 295.361 14.3921 295.387 14.3986C295.602 14.4505 295.831 14.4986 296.055 14.5492ZM257.966 10.7132C257.755 10.7236 257.54 10.7314 257.329 10.7457C257.277 10.7496 257.228 10.7743 257.198 10.7912C257.141 10.8223 257.202 10.8652 257.382 10.8691C257.588 10.8743 257.804 10.8522 258.019 10.8418C258.291 10.8288 258.453 10.7808 258.352 10.7392C258.256 10.699 258.124 10.6912 257.966 10.7132ZM26.8486 7.93821C26.9891 7.93171 27.1339 7.92651 27.2744 7.91742C27.4061 7.90833 27.5072 7.87977 27.5731 7.83691C27.4633 7.80315 27.3403 7.78497 27.2042 7.78887C26.9891 7.79666 26.7784 7.80705 26.5676 7.82003C26.4359 7.82782 26.3086 7.85639 26.2779 7.90054C26.2471 7.9343 26.5412 7.95379 26.8486 7.93821ZM239.398 7.73822C239.455 7.74991 239.512 7.77328 239.569 7.77328C239.71 7.77328 239.855 7.76549 239.987 7.7525C240.044 7.74731 240.087 7.72394 240.114 7.70576C240.131 7.69407 240.127 7.6733 240.101 7.66291C239.973 7.60058 239.464 7.62265 239.381 7.69407C239.372 7.70706 239.394 7.72394 239.398 7.73822ZM225.546 0.627262C225.559 0.64804 225.563 0.668814 225.581 0.689591C225.616 0.728548 225.713 0.757122 225.853 0.776601C225.963 0.744137 226.02 0.707783 226.016 0.668826C226.011 0.648048 225.998 0.627258 225.98 0.606481C225.945 0.567524 225.849 0.538966 225.708 0.519487C225.598 0.550653 225.546 0.587007 225.546 0.627262ZM306.201 17.6424C306.162 17.6593 306.122 17.6762 306.078 17.6917C306.197 17.7294 306.307 17.7411 306.39 17.7203C306.443 17.7073 306.474 17.6878 306.513 17.671C306.395 17.6333 306.289 17.6229 306.201 17.6424ZM303.47 17.819C303.527 17.8307 303.58 17.8463 303.642 17.8541C303.743 17.8671 303.835 17.845 303.905 17.7982C303.848 17.7865 303.795 17.7709 303.734 17.7632C303.633 17.7502 303.541 17.7723 303.47 17.819ZM305.2 17.5814C305.169 17.6125 305.231 17.6385 305.393 17.6606C305.433 17.6437 305.486 17.6281 305.512 17.6099C305.556 17.5801 305.481 17.5528 305.323 17.532C305.279 17.5476 305.24 17.5645 305.2 17.5814ZM295.932 16.1815C295.901 16.2127 295.962 16.2386 296.125 16.2607C296.164 16.2438 296.217 16.2283 296.243 16.2101C296.287 16.1802 296.213 16.1529 296.055 16.1322C296.011 16.1477 295.971 16.1646 295.932 16.1815ZM283.304 6.99284C283.265 7.00973 283.225 7.02661 283.181 7.04219C283.3 7.07985 283.41 7.09153 283.493 7.07076C283.546 7.05777 283.576 7.03829 283.616 7.02141C283.497 6.98375 283.392 6.97337 283.304 6.99284ZM271.208 2.11802C271.313 2.12711 271.401 2.10893 271.476 2.06089C271.419 2.0492 271.366 2.03361 271.305 2.02582C271.204 2.01284 271.112 2.03492 271.041 2.08167C271.098 2.09465 271.155 2.10633 271.208 2.11802ZM264.785 1.81286C264.745 1.82974 264.706 1.84662 264.662 1.8622C264.78 1.89986 264.89 1.91154 264.973 1.89077C265.026 1.87778 265.057 1.8583 265.096 1.84142C264.978 1.80376 264.873 1.79468 264.785 1.81286ZM221.225 0.625963C221.186 0.642844 221.146 0.659726 221.102 0.675309C221.221 0.712967 221.331 0.724651 221.414 0.703874C221.467 0.690888 221.498 0.671409 221.537 0.654527C221.419 0.616869 221.313 0.607783 221.225 0.625963ZM4.33348 11.1911C4.2764 11.1794 4.21937 11.1677 4.16669 11.1548C4.03936 11.1898 3.99986 11.2223 4.07011 11.247C4.11401 11.2625 4.17982 11.2716 4.2369 11.2833C4.36862 11.2483 4.39934 11.2171 4.33348 11.1911Z" fill="#FFE492"/>
<path d="M29.7981 6.60546C29.2932 6.63013 28.7927 6.66129 28.2878 6.67687C28.02 6.68466 27.9234 6.7405 27.8137 6.79245C27.7259 6.834 27.6249 6.84698 27.4624 6.85478C26.0925 6.91841 24.727 6.98593 23.3615 7.05216C23.1903 7.03528 23.1069 7.00801 23.1464 6.97555C23.1683 6.95607 23.2211 6.9288 23.2737 6.9262C24.2089 6.87816 25.1397 6.82881 26.0793 6.79115C26.3471 6.78076 26.4218 6.72362 26.5579 6.67687C26.6018 6.66129 26.637 6.63792 26.694 6.62883C26.7511 6.61844 26.8345 6.61974 26.9092 6.61714C28.4196 6.54312 29.93 6.47041 31.4403 6.39639C31.6116 6.41327 31.695 6.44054 31.6555 6.473C31.6335 6.49248 31.5808 6.51975 31.5281 6.52235C30.9486 6.54962 30.3733 6.57689 29.7981 6.60546Z" fill="#FFE492"/>
<path d="M306.259 13.5205C306.03 13.5361 305.741 13.5582 305.504 13.4829C305.389 13.4465 305.266 13.4348 305.117 13.4426C304.902 13.4556 304.683 13.466 304.463 13.4738C304.406 13.4751 304.331 13.4608 304.274 13.4491C304.151 13.4257 304.046 13.3868 303.914 13.3764C303.782 13.366 303.624 13.3946 303.488 13.3881C303.308 13.379 303.234 13.3439 303.282 13.3114C303.308 13.2933 303.361 13.2673 303.418 13.2634C304.23 13.2154 304.235 13.2154 304.463 13.2621C304.639 13.2985 304.801 13.3387 305.051 13.3166C305.262 13.2985 305.486 13.2946 305.701 13.2829C306 13.2673 306 13.2686 306.483 13.3504C306.606 13.3712 306.737 13.3699 306.895 13.3582C307.032 13.3491 307.163 13.3699 307.273 13.4049C307.203 13.4491 307.102 13.4777 306.966 13.4855C306.746 13.4984 306.531 13.5075 306.259 13.5205Z" fill="#FFE492"/>
<path d="M298.176 13.1207C298.729 13.0935 299.287 13.0701 299.84 13.039C300.068 13.026 300.248 13.0402 300.406 13.0844C300.577 13.1324 300.771 13.1286 300.981 13.1195C301.113 13.1143 301.241 13.135 301.328 13.1714C301.363 13.1857 301.355 13.2117 301.368 13.2324C300.885 13.2558 300.398 13.2805 299.91 13.3012C299.853 13.3038 299.783 13.2909 299.73 13.2805C299.612 13.2584 299.511 13.2194 299.383 13.2117C299.111 13.1935 298.839 13.2285 298.562 13.235C298.43 13.2376 298.303 13.2182 298.215 13.1831C298.18 13.1662 298.189 13.1415 298.176 13.1207Z" fill="#FFE492"/>
<path d="M98.2492 1.95556C98.8244 1.927 99.3995 1.89974 99.9747 1.87117C100.146 1.88935 100.225 1.91532 100.19 1.94778C100.168 1.96726 100.115 1.99453 100.062 1.99713C98.9121 2.05556 97.7619 2.11139 96.6159 2.16723C96.4447 2.14905 96.3656 2.12308 96.4008 2.09062C96.4227 2.07114 96.4754 2.04387 96.5281 2.04127C97.0989 2.01141 97.674 1.98413 98.2492 1.95556Z" fill="#FFE492"/>
<path d="M9.62087 9.1718C9.36183 9.1744 9.08966 9.22244 8.79988 9.18608C8.74281 9.17959 8.66375 9.15881 8.66814 9.14712C8.67693 9.12764 8.72962 9.10297 8.7867 9.09518C9.03696 9.06271 9.34873 9.05882 9.47606 8.96792C9.53752 8.92117 9.65168 8.9056 9.80535 8.89651C9.9678 8.88612 10.0819 8.89 10.2093 8.91727C10.3761 8.95233 10.5166 9.01726 10.7801 8.9835C10.7932 9.00428 10.8239 9.02765 10.8107 9.04713C10.7975 9.06661 10.7406 9.08479 10.6879 9.09908C10.6396 9.11206 10.5736 9.12374 10.5122 9.12764C10.2224 9.14322 9.93261 9.15622 9.62087 9.1718Z" fill="#FFE492"/>
<path d="M237.967 8.91103C238.182 8.90064 238.406 8.89545 238.617 8.87727C238.784 8.86298 238.889 8.87207 239.021 8.90323C239.245 8.95777 239.258 8.95259 239.807 8.96038C239.868 8.96168 239.943 8.98114 239.978 8.99803C240 9.00712 239.969 9.0318 239.943 9.04479C239.903 9.06167 239.846 9.08374 239.793 9.08374C239.447 9.08763 239.095 9.16425 238.757 9.07595C238.586 9.0318 238.397 9.01101 238.165 9.03049C238.024 9.04218 237.875 9.04738 237.73 9.05257C237.589 9.05777 237.445 9.04348 237.357 9.00452C237.229 8.94739 237.304 8.92532 237.532 8.92921C237.677 8.93181 237.822 8.91752 237.967 8.91103Z" fill="#FFE492"/>
<path d="M317.542 17.8619C317.819 17.849 318.096 17.8334 318.377 17.823C318.434 17.8204 318.504 17.8347 318.557 17.8438C318.767 17.8827 318.737 17.9489 318.745 18.0074C318.75 18.0684 318.262 18.1178 318.056 18.0762C317.828 18.0295 317.621 17.9762 317.305 18.0048C317.182 18.0152 317.037 17.9918 316.958 17.9542C316.84 17.8996 316.906 17.8775 317.13 17.8814C317.261 17.884 317.402 17.8697 317.542 17.8619Z" fill="#FFE492"/>
<path d="M178.149 0.187045C178.435 0.172761 178.72 0.150696 179.006 0.149397C179.172 0.148099 179.256 0.190943 179.216 0.222109C179.194 0.241587 179.142 0.268858 179.089 0.271455C178.518 0.302621 177.947 0.328596 177.377 0.357165C177.21 0.338985 177.126 0.311719 177.166 0.280554C177.188 0.261075 177.241 0.235103 177.293 0.231208C177.579 0.213028 177.864 0.201329 178.149 0.187045Z" fill="#FFE492"/>
<path d="M312.067 13.6349C312.343 13.6219 312.624 13.6025 312.901 13.596C313.046 13.5934 313.16 13.6232 313.178 13.657C313.186 13.6726 313.116 13.6998 313.059 13.7063C312.664 13.7505 312.238 13.7557 311.825 13.7778C311.694 13.7843 311.553 13.7635 311.474 13.7271C311.356 13.6713 311.421 13.6505 311.645 13.6544C311.786 13.6557 311.926 13.6414 312.067 13.6349Z" fill="#FFE492"/>
<path d="M245.22 9.08631C245.36 9.07982 245.505 9.06294 245.641 9.06813C245.786 9.07462 245.878 9.11228 245.922 9.14994C245.97 9.19279 245.966 9.23306 245.922 9.26942C245.852 9.33175 245.782 9.32915 245.619 9.2876C245.369 9.22267 245.351 9.23046 244.855 9.23305C244.798 9.23305 244.728 9.21357 244.684 9.19669C244.618 9.17072 244.653 9.13047 244.807 9.1071C244.921 9.09021 245.079 9.09281 245.22 9.08631Z" fill="#FFE492"/>
<path d="M301.78 13.209C301.986 13.1986 302.193 13.1818 302.399 13.1818C302.544 13.1805 302.658 13.2103 302.671 13.2428C302.676 13.2584 302.61 13.2843 302.557 13.2921C302.307 13.3272 302.026 13.3298 301.754 13.3415C301.626 13.3467 301.486 13.3259 301.407 13.2895C301.288 13.235 301.359 13.2103 301.574 13.2181C301.64 13.2207 301.71 13.2129 301.78 13.209Z" fill="#FFE492"/>
<path d="M269.303 11.6159C268.996 11.6315 268.706 11.612 268.728 11.5783C268.758 11.5341 268.886 11.5055 269.017 11.4977C269.228 11.4848 269.439 11.4744 269.654 11.4666C269.79 11.4614 269.913 11.4809 270.023 11.5146C269.957 11.5562 269.856 11.5861 269.724 11.5951C269.588 11.6042 269.443 11.6094 269.303 11.6159Z" fill="#FFE492"/>
<path d="M267.286 11.4496C267.492 11.4392 267.699 11.4223 267.905 11.4223C268.05 11.421 268.164 11.4509 268.177 11.4833C268.182 11.4989 268.116 11.5249 268.063 11.5327C267.813 11.5677 267.532 11.5703 267.26 11.582C267.132 11.5872 266.992 11.5664 266.913 11.5301C266.794 11.4755 266.864 11.4509 267.08 11.4587C267.145 11.4613 267.216 11.4535 267.286 11.4496Z" fill="#FFE492"/>
<path d="M242.731 9.07565C242.938 9.06526 243.144 9.04837 243.35 9.04707C243.495 9.04577 243.609 9.07565 243.623 9.10811C243.627 9.1237 243.561 9.14837 243.508 9.15746C243.258 9.19252 242.977 9.19512 242.705 9.20681C242.578 9.212 242.437 9.19122 242.358 9.15486C242.24 9.10032 242.31 9.07564 242.525 9.08343C242.591 9.08603 242.661 9.07825 242.731 9.07565Z" fill="#FFE492"/>
<path d="M241.575 8.99908C241.794 8.98869 241.865 8.9822 241.935 8.9822C242.067 8.9822 242.203 8.99779 242.282 9.03545C242.4 9.08999 242.33 9.10558 242.115 9.10817C241.838 9.11077 241.566 9.13804 241.29 9.14324C241.145 9.14583 241.03 9.11466 241.022 9.08219C241.017 9.06661 241.083 9.03934 241.136 9.03415C241.32 9.01467 241.522 9.00298 241.575 8.99908Z" fill="#FFE492"/>
<path d="M265.499 1.3596C265.359 1.3661 265.21 1.38428 265.078 1.37779C264.902 1.3687 264.832 1.33364 264.876 1.30118C264.902 1.283 264.951 1.25702 265.003 1.25313C265.284 1.23495 265.57 1.22325 265.851 1.21027C266.018 1.22974 266.092 1.25701 266.048 1.28948C266.022 1.30766 265.974 1.33233 265.921 1.33752C265.785 1.35051 265.64 1.35311 265.499 1.3596Z" fill="#FFE492"/>
<path d="M95.1007 2.10871C95.2368 2.10741 95.3597 2.12429 95.465 2.15676C95.3992 2.19831 95.3026 2.22558 95.1709 2.23727C95.105 2.24246 95.0304 2.24635 94.9602 2.24765C94.824 2.25025 94.7011 2.23207 94.5957 2.19961C94.6616 2.15805 94.7625 2.13078 94.8898 2.1191C94.9557 2.1139 95.0304 2.11261 95.1007 2.10871Z" fill="#FFE492"/>
<path d="M310.566 13.6299C310.562 13.5923 310.83 13.5494 311.071 13.5507C311.199 13.552 311.33 13.5702 311.405 13.6053C311.519 13.6585 311.453 13.6793 311.238 13.6754C311.106 13.6728 310.966 13.6949 310.834 13.691C310.685 13.6897 310.597 13.6611 310.566 13.6299Z" fill="#FFE492"/>
<path d="M246.492 9.24321C246.488 9.22893 246.466 9.21205 246.479 9.19906C246.562 9.12764 247.067 9.10557 247.199 9.1679C247.221 9.17959 247.23 9.19906 247.212 9.21075C247.186 9.22893 247.137 9.2523 247.085 9.25749C246.949 9.27048 246.808 9.27698 246.668 9.27827C246.606 9.27827 246.549 9.2562 246.492 9.24321Z" fill="#FFE492"/>
<path d="M11.1826 8.96402C10.6645 8.99129 10.6557 8.98868 10.7479 8.92375C10.8313 8.86532 10.985 8.83026 11.2089 8.83026C11.2748 8.83026 11.345 8.82767 11.4021 8.83286C11.4636 8.83935 11.5514 8.85233 11.5646 8.86791C11.591 8.89778 11.5162 8.93024 11.3845 8.95232C11.3274 8.96271 11.2528 8.96012 11.1826 8.96402Z" fill="#FFE492"/>
<path d="M101.587 1.92589C101.433 1.94797 101.301 1.94018 101.205 1.89863C101.108 1.85708 101.262 1.80772 101.53 1.79604C101.6 1.79344 101.675 1.78306 101.74 1.78825C101.806 1.79215 101.872 1.80772 101.912 1.8233C101.982 1.84927 101.938 1.88434 101.798 1.91421C101.741 1.9259 101.657 1.9233 101.587 1.92589Z" fill="#FFE492"/>
<path d="M309.652 13.5322C309.691 13.5153 309.731 13.4984 309.775 13.4829C309.937 13.5049 310.007 13.5309 309.963 13.5608C309.937 13.579 309.884 13.5945 309.845 13.6114C309.682 13.5893 309.617 13.5621 309.652 13.5322Z" fill="#FFE492"/>
<path d="M18.1367 23.7471C18.1367 23.7315 18.1982 23.7068 18.2465 23.7016C18.3387 23.6925 18.4528 23.7107 18.5318 23.7471C18.6416 23.799 18.5758 23.8263 18.3738 23.812C18.2333 23.8016 18.1367 23.7756 18.1367 23.7471Z" fill="#FFE492"/>
<path d="M248.282 8.03429C248.339 8.04598 248.396 8.05767 248.448 8.07065C248.374 8.1187 248.282 8.13947 248.185 8.12648C248.123 8.11869 248.071 8.10311 248.014 8.09142C248.088 8.04337 248.176 8.0252 248.282 8.03429Z" fill="#FFE492"/>
<path d="M246.761 7.97602C246.849 7.95654 246.954 7.96694 247.077 8.0046C247.038 8.02148 247.003 8.04096 246.954 8.05394C246.871 8.07472 246.761 8.06432 246.643 8.02536C246.678 8.00978 246.717 7.9929 246.761 7.97602Z" fill="#FFE492"/>
<path d="M245.596 8.03273C245.653 8.04442 245.71 8.05611 245.763 8.0691C245.688 8.11714 245.6 8.13791 245.499 8.12492C245.438 8.11713 245.385 8.10155 245.328 8.08986C245.403 8.04181 245.491 8.02234 245.596 8.03273Z" fill="#FFE492"/>
<path d="M244.742 7.96411C244.808 7.99008 244.773 8.02125 244.646 8.05631C244.589 8.04462 244.523 8.03554 244.479 8.01996C244.409 7.99529 244.444 7.96281 244.575 7.92775C244.628 7.94074 244.685 7.95243 244.742 7.96411Z" fill="#FFE492"/>
</svg>
